<svg width="127" height="166" viewBox="0 0 127 166" fill="none" xmlns="http://www.w3.org/2000/svg">
<path d="M7.14106 153.368H5.10811V148.477H3.58766V156.217H5.87687V156.681H3.58766V165.434H4.21976V165.897H0.922607V165.434H1.5547V148.494H0.922607V148.03H7.14106V153.368Z" fill="white"/>
<path d="M25.3011 165.88H24.4127C23.2169 165.88 22.619 165.262 22.619 164.009V157.693C22.619 157.419 22.5165 157.178 22.3285 156.972C22.1235 156.766 21.8844 156.681 21.611 156.681H20.7227V165.434H21.3548V165.897H18.0576V165.434H18.6897V148.494H18.0576V148.03H21.611C22.4481 148.03 23.1656 148.288 23.7636 148.803C24.3615 149.318 24.6519 149.918 24.6519 150.639V154.089C24.6519 155.205 24.054 155.994 22.8752 156.457C24.054 156.955 24.6519 157.745 24.6519 158.843V164.764C24.6519 165.228 24.8398 165.451 25.2328 165.451H25.284V165.88H25.3011ZM22.636 155.187V149.489C22.636 149.215 22.5335 148.974 22.3456 148.768C22.1406 148.562 21.9014 148.477 21.6281 148.477H20.7398V156.217H21.6281C21.9014 156.217 22.1406 156.114 22.3456 155.925C22.5335 155.702 22.636 155.462 22.636 155.187Z" fill="white"/>
<path d="M42.5725 165.88H39.2754V165.416H39.9075L39.4462 160.233H37.6183L37.1057 165.416H37.7378V165.88H35.8245V165.416H36.4566L38.2503 148.013H40.2833L41.9404 165.416H42.5725V165.88ZM39.4291 159.787L38.592 150.124L37.6524 159.787H39.4291Z" fill="white"/>
<path d="M59.8443 148.477H59.2122V165.88H57.5893L54.5142 151.978V165.416H55.1463V165.88H53.25V165.416H53.8821V148.477H53.25V148.013H55.8125L58.5801 160.422V148.477H57.948V148.013H59.8443V148.477Z" fill="white"/>
<path d="M77.2524 163.391C77.2524 164.112 76.962 164.713 76.3641 165.228C75.7662 165.743 75.0486 166 74.2115 166C73.3744 166 72.6569 165.743 72.059 165.228C71.4611 164.713 71.1536 164.112 71.1536 163.391V150.485C71.1536 149.764 71.4611 149.163 72.059 148.648C72.6569 148.133 73.3744 147.876 74.2115 147.876C75.0486 147.876 75.7662 148.133 76.3641 148.648C76.962 149.163 77.2524 149.781 77.2524 150.485V153.368H75.2195V149.369C75.2195 149.094 75.117 148.854 74.9291 148.648C74.7241 148.442 74.4849 148.356 74.2115 148.356C73.9211 148.356 73.6819 148.459 73.494 148.648C73.289 148.854 73.2036 149.094 73.2036 149.369V164.524C73.2036 164.799 73.3061 165.039 73.494 165.245C73.699 165.451 73.9382 165.537 74.2115 165.537C74.4849 165.537 74.7241 165.434 74.9291 165.245C75.1341 165.039 75.2195 164.799 75.2195 164.524V160.525H77.2524V163.391Z" fill="white"/>
<path d="M95.0195 165.88H91.7224V165.416H92.3545L91.8932 160.233H90.0653L89.5528 165.416H90.1849V165.88H88.2715V165.416H88.9036L90.6974 148.013H92.7303L94.3874 165.416H95.0195V165.88ZM91.8761 159.787L91.039 150.124L90.0994 159.787H91.8761Z" fill="white"/>
<path d="M109.045 165.88H105.748V165.416H106.38V148.477H105.748V148.013H109.045V148.477H108.413V165.416H109.045V165.88Z" fill="white"/>
<path d="M126.146 163.391C126.146 164.112 125.872 164.73 125.309 165.228C124.745 165.743 124.062 165.983 123.225 165.983C122.387 165.983 121.687 165.725 121.14 165.228C120.577 164.713 120.303 164.112 120.303 163.391V160.508H122.336V164.507C122.336 165.193 122.627 165.537 123.225 165.537C123.805 165.537 124.096 165.193 124.096 164.507V161.4C124.096 160.559 123.891 159.804 123.481 159.169L120.935 155.187C120.491 154.501 120.286 153.728 120.286 152.888V150.45C120.286 149.73 120.559 149.112 121.123 148.614C121.687 148.099 122.37 147.859 123.207 147.859C124.027 147.859 124.728 148.116 125.292 148.614C125.855 149.129 126.129 149.73 126.129 150.45V153.334H124.096V149.335C124.096 148.648 123.805 148.305 123.225 148.305C122.627 148.305 122.336 148.648 122.336 149.335V152.321C122.336 153.162 122.541 153.9 122.951 154.535L125.497 158.517C125.941 159.203 126.163 159.976 126.163 160.817V163.391H126.146Z" fill="white"/>
<path d="M91.09 5.26902C90.5434 3.50124 89.7746 2.16253 88.7837 1.28722C87.8441 0.429074 86.7166 0 85.4524 0C83.4707 0 81.1986 1.09843 79.0631 3.08933C77.1668 4.87428 75.5951 7.19127 74.8605 9.30231C73.8184 12.3058 72.6738 13.7647 71.7684 14.9489C71.0338 15.8929 70.3846 16.7167 70.1796 17.9524C68.1808 17.6607 65.9429 17.5234 63.4999 17.5234C61.0569 17.5234 58.819 17.6778 56.8202 17.9524C56.6152 16.7167 55.966 15.8929 55.2314 14.9489C54.3089 13.7647 53.1814 12.3058 52.1393 9.30231C51.4047 7.19127 49.833 4.87428 47.9367 3.08933C45.8012 1.09843 43.5462 0 41.5474 0C40.2832 0 39.1557 0.429074 38.2161 1.28722C37.2252 2.17969 36.4564 3.5184 35.9098 5.26902C35.0556 8.03226 34.7822 10.4522 35.0556 12.6663C35.2948 14.6228 35.9439 16.1503 36.5077 17.5062C37.2252 19.2397 37.8573 20.7328 37.584 22.7409C37.2252 25.2982 38.0965 27.6838 40.0953 29.6404C41.069 30.6015 42.0941 31.2366 42.692 31.5627C42.5553 32.7641 42.487 33.9826 42.4186 35.1497C42.282 37.501 42.1453 39.7322 41.5303 41.5C40.847 43.4222 40.5053 45.396 40.5053 47.3526C40.5053 48.9315 40.7103 50.5105 41.1374 52.038C41.7182 54.1491 42.5553 55.5908 42.8799 56.1228V56.14C42.8799 56.1571 42.8799 56.1743 42.8799 56.2086C42.8799 56.3116 42.897 56.3974 42.897 56.4832C42.9141 56.5862 42.9141 56.7064 42.9482 56.8265V56.8437C42.9482 56.8608 42.9482 56.878 42.9482 56.8952C42.9653 56.9981 42.9824 57.1183 43.0166 57.2213C43.0166 57.2384 43.0166 57.2556 43.0337 57.2727V57.2899C43.0678 57.3929 43.0849 57.4959 43.1191 57.5988C43.1191 57.616 43.1191 57.616 43.1191 57.6332C43.1532 57.7361 43.1874 57.8391 43.2387 57.9593V57.9764C43.2387 57.9936 43.2557 58.0107 43.2557 58.0279C43.307 58.1309 43.3412 58.2339 43.3924 58.3368C43.3924 58.354 43.4095 58.3712 43.4095 58.3712V58.3883C43.4608 58.4913 43.512 58.5771 43.5633 58.6801C43.5633 58.6973 43.5803 58.6973 43.5803 58.7144C43.6316 58.8002 43.6999 58.9032 43.7512 59.0062C43.7683 59.0234 43.7683 59.0405 43.7853 59.0577C43.8537 59.1607 43.922 59.2465 43.9733 59.3323C43.9733 59.3495 43.9903 59.3495 43.9903 59.3666C44.0587 59.4524 44.127 59.5382 44.1954 59.6241C44.1954 59.6412 44.2124 59.6412 44.2124 59.6584C44.2808 59.7442 44.3662 59.83 44.4516 59.933C44.4687 59.9502 44.4858 59.9673 44.4858 59.9845C44.5712 60.0703 44.6566 60.1561 44.742 60.2419L44.7591 60.2591C44.8445 60.3449 44.9299 60.4307 45.0154 60.4994L45.0325 60.5165C45.1179 60.6023 45.2204 60.671 45.3058 60.7568C45.3229 60.7568 45.3229 60.774 45.34 60.774H45.357C45.562 60.9284 45.767 61.0829 45.9721 61.2202L45.9891 61.2374C46.0916 61.306 46.1941 61.3747 46.3137 61.4433L46.3308 61.4605H46.3479C46.57 61.5978 46.8092 61.7179 47.0483 61.8209H47.0654C47.185 61.8724 47.3046 61.9239 47.4242 61.9754H47.4412C47.6975 62.0784 47.9538 62.1642 48.21 62.25H48.2271C48.62 62.3701 49.03 62.4559 49.44 62.5074C49.7646 62.5418 50.0721 62.5761 50.3967 62.5761C50.4992 62.5761 50.6017 62.5761 50.7042 62.5761C51.1313 62.5589 51.5584 62.4903 51.9684 62.4045H51.9855C52.1563 62.3701 52.3101 62.3186 52.4809 62.2672C54.2576 63.1425 56.6152 63.7603 59.4682 64.1036C61.7061 64.3782 63.3974 64.3782 63.4657 64.3782C63.5341 64.3782 65.2254 64.3782 67.4633 64.1036C70.3163 63.7432 72.6738 63.1253 74.4505 62.2672C74.6043 62.3186 74.7751 62.3701 74.9289 62.4045H74.946C75.356 62.5074 75.7831 62.5589 76.2102 62.5761H76.2272C76.3297 62.5761 76.4322 62.5761 76.5347 62.5761C76.8422 62.5761 77.1668 62.5589 77.4914 62.5074H77.5085C77.9185 62.4559 78.3114 62.3701 78.7215 62.25H78.7385C78.9948 62.1642 79.251 62.0784 79.5073 61.9754H79.5244C79.644 61.9239 79.7635 61.8724 79.8831 61.8209H79.9002C80.1394 61.7179 80.3615 61.5806 80.6007 61.4605L80.6177 61.4433C80.7202 61.3747 80.8398 61.306 80.9423 61.2374L80.9594 61.2202C81.1644 61.0829 81.3865 60.9284 81.5744 60.774H81.5915L81.6257 60.7568C81.7282 60.671 81.8136 60.6023 81.899 60.5165L81.9161 60.4994C82.0015 60.4136 82.0869 60.3277 82.1723 60.2591L82.1894 60.2419C82.2749 60.1561 82.3432 60.0703 82.4457 59.9845C82.4628 59.9673 82.4799 59.9502 82.4799 59.933C82.5653 59.8472 82.6336 59.7614 82.719 59.6584C82.719 59.6412 82.7361 59.6412 82.7361 59.6241C82.8044 59.5382 82.8728 59.4524 82.9411 59.3666C82.9411 59.3495 82.9582 59.3495 82.9582 59.3323C83.0265 59.2465 83.0949 59.1435 83.1461 59.0405C83.1632 59.0234 83.1632 59.0062 83.1803 58.989C83.2486 58.8861 83.2999 58.7831 83.3511 58.6973C83.3511 58.6801 83.3682 58.6801 83.3682 58.6629C83.4195 58.5771 83.4707 58.4741 83.522 58.3712V58.354C83.522 58.3368 83.539 58.3368 83.539 58.3197C83.5903 58.2167 83.6245 58.1137 83.6757 58.0107C83.6757 57.9936 83.6928 57.9764 83.6928 57.9593V57.9421C83.7441 57.822 83.7782 57.719 83.8124 57.616C83.8124 57.5988 83.8124 57.5988 83.8295 57.5817C83.8636 57.4787 83.8978 57.3757 83.9149 57.2727V57.2556C83.9149 57.2384 83.9149 57.2213 83.932 57.2041C83.9661 57.1011 83.9832 56.981 84.0003 56.878C84.0003 56.8608 84.0003 56.8437 84.0003 56.8265V56.8093C84.0174 56.6892 84.0345 56.5691 84.0516 56.4661C84.0516 56.3803 84.0686 56.2945 84.0686 56.1915C84.0686 56.1743 84.0686 56.1572 84.0686 56.1228V56.1057C84.3932 55.5908 85.2132 54.1319 85.8112 52.0209C86.2383 50.4934 86.4604 48.9144 86.4433 47.3354C86.4433 45.3617 86.1016 43.3879 85.4182 41.4828C84.7862 39.715 84.6666 37.4839 84.5299 35.1325C84.4616 33.9655 84.3932 32.7469 84.2566 31.5455C84.8545 31.2194 85.8795 30.5844 86.8533 29.6232C88.8521 27.6667 89.7233 25.281 89.3646 22.7237C89.0912 20.6985 89.7062 19.2053 90.4408 17.489C91.0046 16.1332 91.6538 14.6057 91.893 12.6491C92.2176 10.4522 91.9442 8.03226 91.09 5.26902Z" fill="white"/>
<path d="M77.1326 67.2101L69.8721 69.9905L65.772 71.5695C65.3449 70.7457 64.5078 70.1793 63.517 70.1793C62.5261 70.1793 61.6719 70.7628 61.2619 71.5866L57.1106 69.9905L49.8671 67.2101C49.4229 67.0385 48.9446 67.3646 48.9446 67.8451V73.1141V78.3832C48.9446 78.8637 49.4229 79.1898 49.8671 79.0182L57.1106 76.2378L61.2619 74.6416C61.689 75.4826 62.5261 76.049 63.517 76.049C64.5078 76.049 65.3449 75.4826 65.772 74.6588L69.8721 76.2378L77.1326 79.0182C77.5768 79.1898 78.0381 78.8637 78.0381 78.3832V73.097V67.8108C78.0552 67.3645 77.5768 67.0385 77.1326 67.2101Z" fill="white"/>
<path d="M16.2978 132.258C16.2978 134.025 15.5632 135.536 14.094 136.789C12.6248 138.042 10.8481 138.677 8.76392 138.677H0V137.544H1.55461V95.7006H0V94.5678H8.76392C10.8481 94.5678 12.6248 95.2029 14.094 96.4558C15.5632 97.7086 16.2978 99.2361 16.2978 100.987V109.517C16.2978 112.263 14.8457 114.219 11.9244 115.369C14.8457 116.605 16.2978 118.562 16.2978 121.239V132.258ZM11.2752 112.28V98.2235C11.2752 97.5199 11.0361 96.9363 10.5406 96.4386C10.0452 95.9409 9.46435 95.7006 8.76392 95.7006H6.57721V114.803H8.74684C9.44727 114.803 10.0281 114.563 10.5235 114.065C11.019 113.584 11.2752 112.984 11.2752 112.28ZM11.2752 135.021V118.476C11.2752 117.772 11.0361 117.189 10.5406 116.691C10.0452 116.193 9.46435 115.953 8.76392 115.953H6.57721V137.561H8.74684C9.44727 137.561 10.0281 137.321 10.5235 136.823C11.019 136.308 11.2752 135.725 11.2752 135.021Z" fill="white"/>
<path d="M36.9861 95.7006H35.4315V132.567C35.4315 134.334 34.6969 135.845 33.2277 137.098C31.7585 138.35 29.9818 138.986 27.8976 138.986C25.8305 138.986 24.0709 138.35 22.6017 137.098C21.1325 135.828 20.3979 134.317 20.3979 132.567V95.7006H18.8091V94.5678H26.9922V95.7006H25.4375V135.33C25.4375 136.034 25.6767 136.617 26.1721 137.115C26.6676 137.612 27.2484 137.853 27.9147 137.853C28.6151 137.853 29.196 137.612 29.6914 137.115C30.1868 136.617 30.426 136.034 30.426 135.33V95.7006H28.8714V94.5678H37.0203V95.7006H36.9861Z" fill="white"/>
<path d="M53.9332 138.677H38.592V137.544H40.1467V95.7006H38.592V94.5678H46.741V95.7006H45.1863V137.544H48.9447V125.461H53.9332V138.677Z" fill="white"/>
<path d="M71.1705 138.677H55.8293V137.544H57.384V95.7006H55.8293V94.5678H63.9783V95.7006H62.4236V137.544H66.1821V125.461H71.1705V138.677Z" fill="white"/>
<path d="M89.3647 132.258C89.3647 134.025 88.6301 135.536 87.1609 136.789C85.6917 138.042 83.915 138.677 81.8308 138.677H73.0669V137.544H74.6215V95.7006H73.0669V94.5678H81.8308C83.915 94.5678 85.6917 95.2029 87.1609 96.4558C88.6301 97.7086 89.3647 99.2361 89.3647 100.987V132.258ZM84.3421 135.021V98.2235C84.3421 97.5199 84.1029 96.9363 83.6075 96.4386C83.1121 95.9409 82.5313 95.7006 81.8308 95.7006H79.6612V137.544H81.8308C82.5313 137.544 83.1121 137.304 83.6075 136.806C84.1029 136.308 84.3421 135.725 84.3421 135.021Z" fill="white"/>
<path d="M108.191 132.567C108.191 134.334 107.456 135.845 105.987 137.098C104.518 138.35 102.741 138.986 100.657 138.986C98.5898 138.986 96.8302 138.35 95.3439 137.098C93.8576 135.828 93.123 134.317 93.123 132.567V100.695C93.123 98.9272 93.8576 97.4169 95.3439 96.164C96.8302 94.8939 98.5898 94.2761 100.657 94.2761C102.741 94.2761 104.518 94.9111 105.987 96.164C107.456 97.4169 108.191 98.9444 108.191 100.695V132.567ZM103.168 135.33V97.9146C103.168 97.2109 102.929 96.6274 102.434 96.1296C101.938 95.6319 101.357 95.3916 100.657 95.3916C99.9565 95.3916 99.3757 95.6319 98.8802 96.1296C98.3848 96.6274 98.1456 97.2109 98.1456 97.9146V135.33C98.1456 136.034 98.3848 136.617 98.8802 137.115C99.3757 137.612 99.9565 137.853 100.657 137.853C101.357 137.853 101.938 137.612 102.434 137.115C102.929 136.617 103.168 136.034 103.168 135.33Z" fill="white"/>
<path d="M127 132.567C127 134.334 126.265 135.845 124.796 137.098C123.327 138.35 121.55 138.986 119.466 138.986C117.399 138.986 115.639 138.35 114.153 137.098C112.667 135.828 111.932 134.317 111.932 132.567V100.695C111.932 98.9272 112.667 97.4169 114.153 96.164C115.639 94.8939 117.399 94.2761 119.466 94.2761C121.55 94.2761 123.327 94.9111 124.796 96.164C126.265 97.4169 127 98.9444 127 100.695V107.8H121.977V97.9318C121.977 97.2281 121.738 96.6445 121.243 96.1468C120.747 95.6491 120.166 95.4088 119.466 95.4088C118.766 95.4088 118.185 95.6491 117.689 96.1468C117.194 96.6445 116.955 97.2281 116.955 97.9318V135.347C116.955 136.051 117.194 136.634 117.689 137.132C118.185 137.63 118.766 137.87 119.466 137.87C120.166 137.87 120.747 137.63 121.243 137.132C121.738 136.634 121.977 136.051 121.977 135.347V115.953H119.466V114.82H127V132.567Z" fill="white"/>
</svg>
