<svg width="88" height="492" viewBox="0 0 88 492" fill="none" xmlns="http://www.w3.org/2000/svg">
<path d="M0.207999 449.616H2.688C2.77066 452.427 3.10133 454.576 3.68 456.064C4.176 457.469 5.168 458.42 6.656 458.916C8.06133 459.412 10.2933 459.66 13.352 459.66H76.84C79.2373 459.66 81.056 459.495 82.296 459.164C83.4533 458.751 84.2387 458.048 84.652 457.056C84.9827 456.064 85.148 454.576 85.148 452.592V447.508C85.148 445.028 84.404 442.548 82.916 440.068C81.428 437.588 79.3613 435.273 76.716 433.124C73.988 430.975 70.888 429.115 67.416 427.544C63.8613 425.973 60.0587 424.857 56.008 424.196V421.344C58.9013 421.592 62.6213 421.716 67.168 421.716C69.2347 421.716 72.2107 421.675 76.096 421.592C79.8987 421.509 83.8667 421.261 88 420.848C87.8347 425.064 87.752 429.817 87.752 435.108C87.6693 440.399 87.628 445.111 87.628 449.244C87.628 451.393 87.628 454.121 87.628 457.428C87.628 460.735 87.6693 464.331 87.752 468.216C87.752 472.101 87.7933 476.028 87.876 479.996C87.876 483.964 87.9173 487.684 88 491.156H85.52C85.3547 488.593 85.024 486.692 84.528 485.452C84.032 484.129 83.04 483.261 81.552 482.848C80.064 482.352 77.832 482.104 74.856 482.104H13.352C10.2933 482.104 8.06133 482.352 6.656 482.848C5.168 483.261 4.176 484.129 3.68 485.452C3.10133 486.692 2.77066 488.593 2.688 491.156H0.207999C0.290665 488.924 0.373331 485.948 0.455996 482.228C0.538662 478.508 0.579995 474.54 0.579995 470.324C0.579995 466.439 0.538662 462.636 0.455996 458.916C0.373331 455.196 0.290665 452.096 0.207999 449.616ZM88.868 398.632C88.868 402.434 88.1653 405.576 86.76 408.056C85.272 410.536 83.3293 412.354 80.932 413.512C78.5347 414.669 75.972 415.248 73.244 415.248C69.772 415.248 66.92 414.462 64.688 412.892C62.456 411.238 60.6787 409.13 59.356 406.568C57.9507 404.005 56.7933 401.318 55.884 398.508C54.9747 395.697 54.1067 393.01 53.28 390.448C52.3707 387.885 51.3373 385.818 50.18 384.248C48.94 382.677 47.3693 381.892 45.468 381.892H35.176C33.3573 381.892 31.6627 382.181 30.092 382.76C28.4387 383.256 27.116 384.206 26.124 385.612C25.0493 386.934 24.512 388.794 24.512 391.192C24.512 392.68 24.7187 394.126 25.132 395.532C25.5453 396.937 26.2067 398.177 27.116 399.252C28.0253 396.606 29.3893 394.664 31.208 393.424C33.0267 392.101 35.052 391.44 37.284 391.44C40.3427 391.44 42.7813 392.514 44.6 394.664C46.336 396.73 47.204 399.21 47.204 402.104C47.204 405.245 46.212 407.684 44.228 409.42C42.244 411.073 39.8467 411.9 37.036 411.9C34.556 411.9 32.4893 411.28 30.836 410.04C29.1 408.8 27.5293 406.981 26.124 404.584C24.7187 402.186 23.6853 399.293 23.024 395.904C22.3627 392.514 22.032 388.918 22.032 385.116C22.032 381.23 22.4453 377.676 23.272 374.452C24.016 371.145 25.5453 368.334 27.86 366.02C29.7613 364.201 32.076 363.044 34.804 362.548C37.532 362.052 41.004 361.804 45.22 361.804H78.7C80.7667 361.804 82.2133 361.638 83.04 361.308C83.784 360.894 84.156 360.274 84.156 359.448C84.156 358.704 83.9493 358.001 83.536 357.34C83.1227 356.678 82.668 356.017 82.172 355.356L84.28 353.992C85.768 355.81 86.9253 357.96 87.752 360.44C88.496 362.92 88.868 365.606 88.868 368.5C88.868 371.806 88.4547 374.41 87.628 376.312C86.7187 378.13 85.52 379.453 84.032 380.28C82.544 381.024 80.8907 381.437 79.072 381.52C82.048 383.338 84.4453 385.612 86.264 388.34C88 391.068 88.868 394.498 88.868 398.632ZM79.94 388.34C79.94 387.017 79.692 385.86 79.196 384.868C78.6173 383.793 77.6667 382.801 76.344 381.892H50.552C51.7093 382.553 52.8253 383.462 53.9 384.62C54.892 385.694 55.9253 386.852 57 388.092C57.992 389.332 59.108 390.53 60.348 391.688C61.588 392.762 63.076 393.672 64.812 394.416C66.4653 395.077 68.4907 395.408 70.888 395.408C74.112 395.408 76.4267 394.746 77.832 393.424C79.2373 392.101 79.94 390.406 79.94 388.34ZM22.032 276.12C22.032 272.565 22.4867 269.713 23.396 267.564C24.3053 265.332 25.4627 263.596 26.868 262.356C28.4387 261.033 30.5053 260.082 33.068 259.504C35.548 258.925 38.8547 258.636 42.988 258.636H76.468C79.94 258.636 82.296 258.181 83.536 257.272C84.776 256.28 85.396 254.585 85.396 252.188H88C87.9173 253.758 87.8347 256.073 87.752 259.132C87.5867 262.19 87.504 265.166 87.504 268.06C87.504 271.201 87.5867 274.26 87.752 277.236C87.8347 280.212 87.9173 282.444 88 283.932H85.396C85.396 282.03 84.776 280.708 83.536 279.964C82.296 279.137 79.94 278.724 76.468 278.724H37.036C35.1347 278.724 33.5227 278.889 32.2 279.22C30.7947 279.55 29.7613 280.129 29.1 280.956C28.356 281.782 27.984 282.981 27.984 284.552C27.984 286.37 28.48 288.106 29.472 289.76C30.464 291.33 31.8693 292.612 33.688 293.604C35.424 294.513 37.408 294.968 39.64 294.968H76.468C79.94 294.968 82.296 294.596 83.536 293.852C84.776 293.108 85.396 291.744 85.396 289.76H88C87.9173 291.165 87.8347 293.273 87.752 296.084C87.5867 298.894 87.504 301.746 87.504 304.64C87.504 308.029 87.5867 311.418 87.752 314.808C87.8347 318.197 87.9173 320.76 88 322.496H85.396C85.396 319.768 84.776 317.866 83.536 316.792C82.296 315.634 79.94 315.056 76.468 315.056H37.284C33.564 315.056 30.836 315.593 29.1 316.668C27.2813 317.742 26.372 319.685 26.372 322.496H23.768C24.016 319.85 24.14 317.288 24.14 314.808C24.14 311.088 24.016 307.574 23.768 304.268C23.4373 300.878 22.9827 297.778 22.404 294.968H32.448C28.728 293.066 26.0827 290.504 24.512 287.28C22.8587 283.973 22.032 280.253 22.032 276.12ZM22.032 238.796C22.032 235.241 22.4867 232.389 23.396 230.24C24.3053 228.008 25.4627 226.272 26.868 225.032C28.4387 223.709 30.5053 222.758 33.068 222.18C35.548 221.601 38.8547 221.312 42.988 221.312H76.468C79.94 221.312 82.296 220.774 83.536 219.7C84.776 218.542 85.396 216.6 85.396 213.872H88C87.9173 215.525 87.8347 218.005 87.752 221.312C87.5867 224.536 87.504 227.677 87.504 230.736C87.504 233.877 87.5867 236.936 87.752 239.912C87.8347 242.888 87.9173 245.12 88 246.608H85.396C85.396 244.706 84.776 243.384 83.536 242.64C82.296 241.813 79.94 241.4 76.468 241.4H37.036C35.1347 241.4 33.5227 241.606 32.2 242.02C30.7947 242.433 29.7613 243.136 29.1 244.128C28.356 245.037 27.984 246.401 27.984 248.22C27.984 250.038 28.5627 251.774 29.72 253.428C30.7947 254.998 32.2413 256.28 34.06 257.272C35.8787 258.181 37.904 258.718 40.136 258.884L33.936 259.628C29.3067 257.396 26.1653 254.461 24.512 250.824C22.8587 247.186 22.032 243.177 22.032 238.796ZM22.032 177.148C22.032 169.874 24.1813 164.17 28.48 160.036C32.7787 155.903 39.8467 153.836 49.684 153.836V193.64L47.328 193.764V170.7C43.2773 170.535 39.5573 170.7 36.168 171.196C32.696 171.692 29.9267 172.519 27.86 173.676C25.7933 174.751 24.76 176.198 24.76 178.016C24.76 180.496 26.5373 182.604 30.092 184.34C33.6467 186.076 39.6813 187.151 48.196 187.564L49.064 187.068C49.9733 187.234 50.924 187.316 51.916 187.316C52.8253 187.316 53.8173 187.316 54.892 187.316C60.596 187.316 65.1427 186.572 68.532 185.084C71.9213 183.514 74.3187 181.571 75.724 179.256C77.1293 176.942 77.832 174.544 77.832 172.064C77.832 170.659 77.6253 169.088 77.212 167.352C76.7987 165.616 75.9307 163.798 74.608 161.896C73.2853 159.995 71.3427 158.176 68.78 156.44L69.524 154.332C72.748 155.242 75.9307 156.812 79.072 159.044C82.1307 161.194 84.6933 163.963 86.76 167.352C88.744 170.742 89.736 174.834 89.736 179.628C89.736 185.084 88.62 189.962 86.388 194.26C84.0733 198.559 80.4773 201.99 75.6 204.552C70.64 207.032 64.192 208.272 56.256 208.272C48.4027 208.272 41.9547 206.908 36.912 204.18C31.8693 201.452 28.1493 197.732 25.752 193.02C23.272 188.308 22.032 183.018 22.032 177.148ZM22.032 100.629C22.032 96.9913 22.4867 94.098 23.396 91.9487C24.3053 89.7167 25.4627 88.022 26.868 86.8647C28.4387 85.542 30.464 84.5913 32.944 84.0127C35.424 83.3513 38.772 83.0207 42.988 83.0207H76.468C79.94 83.0207 82.296 82.4833 83.536 81.4087C84.776 80.2513 85.396 78.3087 85.396 75.5807H88C87.9173 77.234 87.8347 79.714 87.752 83.0207C87.5867 86.2447 87.504 89.386 87.504 92.4447C87.504 95.834 87.5867 99.0993 87.752 102.241C87.8347 105.382 87.9173 107.738 88 109.309H85.396C85.396 106.994 84.776 105.382 83.536 104.473C82.296 103.563 79.94 103.109 76.468 103.109H37.036C35.1347 103.109 33.5227 103.315 32.2 103.729C30.7947 104.142 29.7613 104.845 29.1 105.837C28.356 106.829 27.984 108.234 27.984 110.053C27.984 111.954 28.48 113.731 29.472 115.385C30.464 116.955 31.8693 118.237 33.688 119.229C35.424 120.138 37.408 120.593 39.64 120.593H76.468C79.94 120.593 82.296 120.138 83.536 119.229C84.776 118.319 85.396 116.707 85.396 114.393H88C87.9173 115.963 87.8347 118.237 87.752 121.213C87.5867 124.189 87.504 127.206 87.504 130.265C87.504 133.654 87.5867 137.043 87.752 140.433C87.8347 143.822 87.9173 146.385 88 148.121H85.396C85.396 145.393 84.776 143.491 83.536 142.417C82.296 141.259 79.94 140.681 76.468 140.681H37.284C33.564 140.681 30.836 141.218 29.1 142.293C27.2813 143.367 26.372 145.31 26.372 148.121H23.768C24.016 145.475 24.14 142.913 24.14 140.433C24.14 136.713 24.016 133.199 23.768 129.893C23.4373 126.503 22.9827 123.403 22.404 120.593H32.448C28.6453 118.609 25.9587 115.922 24.388 112.533C22.8173 109.061 22.032 105.093 22.032 100.629ZM22.404 7.85922H74.484C78.204 7.85922 80.9733 7.32188 82.792 6.24721C84.528 5.08988 85.396 3.14721 85.396 0.419215H88C87.752 2.98188 87.628 5.54455 87.628 8.10721C87.628 11.9099 87.752 15.4645 88 18.7712C88.248 21.9952 88.7027 25.0539 89.364 27.9472H79.32C83.04 29.9312 85.7267 32.6592 87.38 36.1312C88.9507 39.5206 89.736 43.4059 89.736 47.7872C89.736 51.4246 89.2813 54.3592 88.372 56.5912C87.4627 58.7406 86.264 60.3939 84.776 61.5512C83.288 62.8739 81.304 63.8246 78.824 64.4032C76.2613 64.9819 72.9133 65.2712 68.78 65.2712H37.284C33.564 65.2712 30.836 65.8086 29.1 66.8832C27.2813 67.9579 26.372 69.9006 26.372 72.7112H23.768C24.016 70.0659 24.14 67.5032 24.14 65.0232C24.14 61.2206 24.016 57.6659 23.768 54.3592C23.4373 51.0526 22.9827 47.9939 22.404 45.1832H74.732C76.6333 45.1832 78.2453 44.9766 79.568 44.5632C80.8907 44.1499 81.924 43.4472 82.668 42.4552C83.412 41.4632 83.784 40.1406 83.784 38.4872C83.784 36.5859 83.288 34.8499 82.296 33.2792C81.304 31.7086 79.94 30.4272 78.204 29.4352C76.3853 28.4432 74.36 27.9472 72.128 27.9472H37.284C33.564 27.9472 30.836 28.4845 29.1 29.5592C27.2813 30.6339 26.372 32.5766 26.372 35.3872H23.768C24.016 32.7419 24.14 30.1792 24.14 27.6992C24.14 23.8965 24.016 20.3419 23.768 17.0352C23.4373 13.7285 22.9827 10.6699 22.404 7.85922Z" fill="#222222"/>
</svg>
