<svg width="34" height="47" viewBox="0 0 34 47" fill="none" xmlns="http://www.w3.org/2000/svg">
<path d="M32.8599 3.07C32.5399 2.05 32.0899 1.26 31.5099 0.75C30.9599 0.25 30.2999 0 29.5599 0C28.3999 0 27.0699 0.64 25.8199 1.8C24.7099 2.84 23.7899 4.19 23.3599 5.42C22.7499 7.17 22.0799 8.02 21.5499 8.71C21.1199 9.26 20.7399 9.74 20.6199 10.46C19.4499 10.29 18.1399 10.21 16.7099 10.21C15.2799 10.21 13.9699 10.3 12.7999 10.46C12.6799 9.74 12.2999 9.26 11.8699 8.71C11.3299 8.02 10.6699 7.17 10.0599 5.42C9.63995 4.19 8.71994 2.84 7.59995 1.8C6.35995 0.64 5.02994 0 3.86994 0C3.12994 0 2.46994 0.25 1.91995 0.75C1.33995 1.27 0.889945 2.05 0.569945 3.07C0.069945 4.68 -0.090055 6.09 0.069945 7.38C0.199945 8.52 0.579945 9.41 0.909945 10.2C1.32994 11.21 1.69994 12.08 1.53995 13.25C1.32994 14.74 1.83994 16.13 3.00994 17.27C3.57994 17.83 4.17995 18.2 4.52995 18.39C4.44995 19.09 4.40995 19.8 4.36995 20.48C4.28995 21.85 4.20994 23.15 3.84994 24.18C3.44994 25.3 3.24994 26.45 3.24994 27.59C3.24994 28.51 3.36994 29.43 3.61994 30.32C3.95994 31.55 4.44994 32.39 4.63995 32.7V32.71C4.63995 32.72 4.63995 32.73 4.63995 32.75C4.63995 32.81 4.64995 32.86 4.64995 32.91C4.65995 32.97 4.65995 33.04 4.67994 33.11V33.12C4.67994 33.13 4.67994 33.14 4.67994 33.15C4.68995 33.21 4.69994 33.28 4.71994 33.34C4.71994 33.35 4.71994 33.36 4.72995 33.37V33.38C4.74995 33.44 4.75995 33.5 4.77995 33.56C4.77995 33.57 4.77994 33.57 4.78995 33.58C4.80995 33.64 4.82995 33.7 4.85995 33.77V33.78C4.85995 33.79 4.86995 33.8 4.86995 33.81C4.89995 33.87 4.91994 33.93 4.94994 33.99C4.94994 34 4.95995 34.01 4.95995 34.01V34.02C4.98995 34.08 5.01995 34.13 5.04995 34.19C5.04995 34.2 5.05995 34.2 5.05995 34.21C5.08995 34.26 5.12994 34.32 5.15995 34.38C5.16995 34.39 5.16994 34.4 5.17994 34.41C5.21994 34.47 5.25994 34.52 5.28995 34.57C5.28995 34.58 5.29995 34.58 5.29995 34.59C5.33995 34.64 5.37995 34.69 5.41995 34.74C5.41995 34.75 5.42994 34.75 5.42994 34.76C5.46994 34.81 5.51995 34.86 5.56995 34.92C5.57995 34.93 5.58995 34.94 5.58995 34.95C5.63995 35 5.68994 35.05 5.73994 35.1L5.74995 35.11C5.79995 35.16 5.84995 35.21 5.89995 35.25L5.90995 35.26C5.95995 35.31 6.01995 35.35 6.06995 35.4C6.07995 35.4 6.07995 35.41 6.08995 35.41H6.09995C6.21994 35.5 6.33995 35.59 6.45995 35.67L6.46994 35.68C6.52994 35.72 6.58994 35.76 6.65995 35.8L6.66995 35.81H6.67994C6.80995 35.89 6.94995 35.96 7.08995 36.02H7.09995C7.16995 36.05 7.23994 36.08 7.30995 36.11H7.31995C7.46995 36.17 7.61995 36.22 7.76995 36.27H7.77995C8.00995 36.34 8.24994 36.39 8.48994 36.42C8.67994 36.44 8.85995 36.46 9.04994 36.46C9.10995 36.46 9.16994 36.46 9.22994 36.46C9.47994 36.45 9.72995 36.41 9.96994 36.36H9.97994C10.0799 36.34 10.1699 36.31 10.2699 36.28C11.3099 36.79 12.6899 37.15 14.3599 37.35C15.6699 37.51 16.6599 37.51 16.6999 37.51C16.7399 37.51 17.7299 37.51 19.0399 37.35C20.7099 37.14 22.0899 36.78 23.1299 36.28C23.2199 36.31 23.3199 36.34 23.4099 36.36H23.4199C23.6599 36.42 23.9099 36.45 24.1599 36.46H24.1699C24.2299 36.46 24.2899 36.46 24.3499 36.46C24.5299 36.46 24.7199 36.45 24.9099 36.42H24.9199C25.1599 36.39 25.3899 36.34 25.6299 36.27H25.6399C25.7899 36.22 25.9399 36.17 26.0899 36.11H26.0999C26.1699 36.08 26.2399 36.05 26.3099 36.02H26.3199C26.4599 35.95 26.5899 35.88 26.7299 35.81L26.7399 35.8C26.7999 35.76 26.8699 35.72 26.9299 35.68L26.9399 35.67C27.0599 35.59 27.1899 35.5 27.2999 35.41H27.3099L27.3299 35.4C27.3899 35.35 27.4399 35.31 27.4899 35.26L27.4999 35.25C27.5499 35.2 27.5999 35.15 27.6499 35.11L27.6599 35.1C27.7099 35.05 27.7499 35 27.8099 34.95C27.8199 34.94 27.8299 34.93 27.8299 34.92C27.8799 34.87 27.9199 34.82 27.9699 34.76C27.9699 34.75 27.9799 34.75 27.9799 34.74C28.0199 34.69 28.0599 34.64 28.0999 34.59C28.0999 34.58 28.1099 34.58 28.1099 34.57C28.1499 34.52 28.1899 34.46 28.2199 34.4C28.2299 34.39 28.2299 34.38 28.2399 34.37C28.2799 34.31 28.3099 34.25 28.3399 34.2C28.3399 34.19 28.3499 34.19 28.3499 34.18C28.3799 34.13 28.4099 34.07 28.4399 34.01V34C28.4399 33.99 28.4499 33.99 28.4499 33.98C28.4799 33.92 28.4999 33.86 28.5299 33.8C28.5299 33.79 28.5399 33.78 28.5399 33.77V33.76C28.5699 33.69 28.5899 33.63 28.6099 33.57C28.6099 33.56 28.6099 33.56 28.6199 33.55C28.6399 33.49 28.6599 33.43 28.6699 33.37V33.36C28.6699 33.35 28.6699 33.34 28.6799 33.33C28.6999 33.27 28.7099 33.2 28.7199 33.14C28.7199 33.13 28.7199 33.12 28.7199 33.11V33.1C28.7299 33.03 28.7399 32.96 28.7499 32.9C28.7499 32.85 28.7599 32.8 28.7599 32.74C28.7599 32.73 28.7599 32.72 28.7599 32.7V32.69C28.9499 32.39 29.4299 31.54 29.7799 30.31C30.0299 29.42 30.1599 28.5 30.1499 27.58C30.1499 26.43 29.9499 25.28 29.5499 24.17C29.1799 23.14 29.1099 21.84 29.0299 20.47C28.9899 19.79 28.9499 19.08 28.8699 18.38C29.2199 18.19 29.8199 17.82 30.3899 17.26C31.5599 16.12 32.0699 14.73 31.8599 13.24C31.6999 12.06 32.0599 11.19 32.4899 10.19C32.82 9.4 33.1999 8.51 33.3399 7.37C33.5299 6.09 33.3599 4.68 32.8599 3.07Z" fill="white"/>
<path d="M24.7 39.1599L20.45 40.7799L18.05 41.6999C17.8 41.2199 17.31 40.8899 16.73 40.8899C16.15 40.8899 15.65 41.2299 15.41 41.7099L12.98 40.7799L8.73995 39.1599C8.47995 39.0599 8.19995 39.2499 8.19995 39.5299V42.5999V45.6699C8.19995 45.9499 8.47995 46.1399 8.73995 46.0399L12.98 44.4199L15.41 43.4899C15.66 43.9799 16.15 44.3099 16.73 44.3099C17.31 44.3099 17.8 43.9799 18.05 43.4999L20.45 44.4199L24.7 46.0399C24.96 46.1399 25.2299 45.9499 25.2299 45.6699V42.5899V39.5099C25.2299 39.2499 24.95 39.0599 24.7 39.1599Z" fill="white"/>
</svg>
