<svg width="104" height="104" viewBox="0 0 104 104" fill="none" xmlns="http://www.w3.org/2000/svg">
<path d="M94.2533 52.8721C94.1084 52.8451 94.0105 52.8004 93.9596 52.7379C93.9055 52.6752 93.883 52.5805 93.8923 52.4539C93.9023 52.3175 93.9504 52.2183 94.0366 52.156C94.1193 52.0968 94.2503 52.0689 94.4295 52.0723L95.5639 52.0919L95.6516 52.0984C95.8074 52.1098 95.9157 52.1471 95.9763 52.2103C96.0367 52.2768 96.0618 52.3798 96.0515 52.5194C96.0372 52.7142 95.8874 52.8435 95.602 52.9074C95.4595 52.9362 95.3513 52.9657 95.2772 52.9962C95.0416 53.0932 94.8532 53.2588 94.712 53.4933C94.5705 53.7309 94.4872 54.0202 94.4622 54.3611C94.4315 54.7799 94.5056 55.1264 94.6845 55.4007C94.8633 55.6782 95.1068 55.8282 95.4152 55.8509C95.6717 55.8697 95.8838 55.8037 96.0516 55.6528C96.2191 55.5052 96.3369 55.2788 96.405 54.9738L96.5553 54.2602C96.6988 53.5951 96.9117 53.1179 97.1941 52.8285C97.4764 52.5392 97.853 52.4118 98.3237 52.4463C98.8204 52.4828 99.2226 52.718 99.5302 53.1518C99.8375 53.5889 99.9687 54.1142 99.9236 54.7278C99.9105 54.9064 99.8724 55.0929 99.8091 55.2873C99.7491 55.482 99.6596 55.7007 99.5406 55.9433C99.6343 55.9567 99.6973 55.9874 99.7297 56.0355C99.7621 56.0836 99.7742 56.1628 99.7661 56.2732C99.7556 56.416 99.7273 56.5135 99.681 56.5656C99.6347 56.6177 99.5316 56.6444 99.3716 56.6457L98.3488 56.6391L98.3001 56.6355C98.1865 56.6272 98.0996 56.5882 98.0394 56.5185C97.9825 56.449 97.9583 56.3559 97.9669 56.239C97.9795 56.0669 98.1094 55.9426 98.3566 55.8661C98.4963 55.8307 98.6019 55.7927 98.6734 55.7523C98.8436 55.6571 98.9799 55.5121 99.0823 55.3172C99.1848 55.1224 99.2454 54.8967 99.2642 54.6402C99.2931 54.2474 99.2192 53.9205 99.0425 53.6595C98.8656 53.4017 98.6197 53.2612 98.3048 53.2381C98.058 53.22 97.8566 53.2966 97.7004 53.4679C97.5439 53.6424 97.4259 53.9161 97.3463 54.2889L97.1917 55.0609C97.0756 55.6203 96.8707 56.0328 96.577 56.2985C96.2866 56.5644 95.9108 56.6804 95.4498 56.6466C94.9044 56.6065 94.4811 56.3714 94.1797 55.9413C93.8816 55.5114 93.7575 54.9572 93.8073 54.2787C93.8245 54.045 93.8691 53.8149 93.9412 53.5884C94.0133 53.362 94.1174 53.1232 94.2533 52.8721Z" fill="white"/>
<path d="M98.2221 63.4939C98.3004 63.5454 98.3504 63.6037 98.3722 63.6688C98.3939 63.7339 98.3923 63.8204 98.3675 63.9283C98.3404 64.0456 98.2928 64.1215 98.2248 64.156C98.1567 64.1904 98.0338 64.1871 97.8562 64.1461C97.5454 64.0745 97.2544 64.0107 96.9833 63.9549C96.7154 63.8998 96.5989 63.8763 96.6338 63.8843C96.4847 63.8499 96.3891 63.8011 96.3468 63.738C96.3078 63.6755 96.3033 63.5792 96.3332 63.4492C96.3815 63.2398 96.5621 63.1378 96.8748 63.1431C96.9688 63.1414 97.041 63.1397 97.0915 63.138C97.3433 63.1326 97.5701 63.0329 97.7718 62.8389C97.9767 62.6456 98.1147 62.3951 98.1856 62.0874C98.3151 61.526 98.2128 61.028 97.8787 60.5935C97.5477 60.1598 97.0365 59.8632 96.3451 59.7037C95.6536 59.5443 95.0621 59.5883 94.5708 59.8358C94.0819 60.0872 93.7723 60.4952 93.6421 61.0598C93.5997 61.2438 93.5819 61.4368 93.5888 61.6388C93.5988 61.8415 93.635 62.047 93.6972 62.2551C93.7219 62.351 93.7694 62.4855 93.8397 62.6587C93.9131 62.8327 93.9426 62.9514 93.9279 63.0148C93.9053 63.1132 93.8529 63.1879 93.771 63.2392C93.6914 63.2943 93.6041 63.311 93.5089 63.289C93.4138 63.2671 93.3306 63.2078 93.2593 63.1112C93.1905 63.0185 93.116 62.856 93.036 62.6237C92.923 62.3171 92.8563 62.0194 92.836 61.7308C92.8157 61.4421 92.8399 61.1487 92.9087 60.8506C93.0893 60.0671 93.5145 59.4836 94.1842 59.1002C94.857 58.7175 95.6249 58.6257 96.4876 58.8246C97.3409 59.0214 97.9902 59.4434 98.4356 60.0906C98.881 60.7378 99.0134 61.4532 98.8327 62.2366C98.7844 62.446 98.71 62.6527 98.6096 62.8566C98.5083 63.0638 98.3792 63.2762 98.2221 63.4939Z" fill="white"/>
<path d="M96.4167 67.7419L94.5831 67.0144L94.2104 67.9539C94.0423 68.3775 93.9919 68.7252 94.0591 68.9971C94.1282 69.2731 94.314 69.4712 94.6166 69.5912C94.9222 69.7125 95.1936 69.6993 95.4307 69.5518C95.6679 69.4042 95.8687 69.1232 96.0332 68.7086L96.4167 67.7419ZM92.2866 66.1032L92.1641 66.4119C92.0945 66.5874 92.0211 66.7018 91.9438 66.7552C91.8666 66.8086 91.772 66.8131 91.6601 66.7687C91.539 66.7207 91.4669 66.6553 91.4437 66.5726C91.4205 66.4898 91.4437 66.3607 91.5134 66.1852L92.1184 64.6602C92.1592 64.5573 92.2177 64.4895 92.2937 64.4566C92.3728 64.425 92.4653 64.4301 92.5712 64.4722C92.6832 64.5166 92.7514 64.5787 92.7758 64.6584C92.8002 64.7381 92.7848 64.8476 92.7295 64.9867L92.6701 65.1365L92.5657 65.3998L96.6958 67.0384L96.8003 66.7752C96.8903 66.5483 96.9697 66.4099 97.0385 66.3602C97.1073 66.3104 97.2006 66.3089 97.3186 66.3557C97.4215 66.3966 97.4885 66.4529 97.5195 66.5247C97.5493 66.5996 97.5432 66.69 97.5012 66.7959L96.7413 68.7112C96.5576 69.1741 96.3981 69.5101 96.2627 69.719C96.1291 69.9321 95.9781 70.0964 95.8098 70.2117C95.5932 70.3604 95.3501 70.4478 95.0806 70.474C94.8099 70.5031 94.5459 70.4667 94.2887 70.3647C93.9408 70.2266 93.6838 70.0003 93.5179 69.6859C93.3539 69.3756 93.299 69.0107 93.3535 68.591C93.2769 68.6517 93.1963 68.7003 93.1118 68.7368C93.0261 68.7763 92.9294 68.808 92.8219 68.8319L91.0621 69.1895L91.0026 69.3393C90.9354 69.5087 90.865 69.6156 90.7914 69.66C90.7208 69.7055 90.628 69.7054 90.513 69.6598C90.4071 69.6178 90.3362 69.5582 90.3003 69.4809C90.2663 69.4078 90.2696 69.3199 90.3105 69.217L90.5139 68.7041C90.5728 68.5559 90.7393 68.4539 91.0136 68.3981C91.039 68.3871 91.0595 68.3795 91.0752 68.3752L92.7417 68.0278C93.0818 67.9562 93.3146 67.8769 93.4401 67.7901C93.5644 67.7064 93.6643 67.5692 93.74 67.3786L93.9795 66.7749L92.2866 66.1032Z" fill="white"/>
<path d="M89.6366 76.4471C88.867 75.9963 88.3601 75.4126 88.1158 74.6961C87.8744 73.9812 87.9486 73.291 88.3386 72.6253C88.7252 71.9652 89.2916 71.5651 90.0377 71.4249C90.7821 71.2876 91.5377 71.4435 92.3045 71.8927C93.0797 72.3468 93.5875 72.929 93.8278 73.6395C94.0709 74.3515 93.9966 75.0418 93.605 75.7103C93.2151 76.376 92.6479 76.7775 91.9035 76.9148C91.159 77.0522 90.4034 76.8963 89.6366 76.4471ZM88.9368 72.9757C88.6604 73.4476 88.623 73.9237 88.8246 74.4039C89.0273 74.8886 89.4461 75.3169 90.0808 75.6887C90.7156 76.0606 91.2926 76.2156 91.8117 76.1537C92.332 76.0963 92.7303 75.8317 93.0068 75.3598C93.2848 74.8851 93.3231 74.4077 93.1215 73.9274C92.9211 73.4516 92.5007 73.0262 91.8603 72.651C91.2255 72.2792 90.648 72.122 90.1277 72.1794C89.6086 72.2412 89.2116 72.5067 88.9368 72.9757Z" fill="white"/>
<path d="M85.176 80.7562C85.3653 80.9104 85.4723 81.0291 85.497 81.1122C85.5217 81.1953 85.4908 81.2898 85.4045 81.3958C85.3305 81.4867 85.251 81.5353 85.166 81.5416C85.0836 81.5501 84.9932 81.5142 84.8947 81.434L84.732 81.3014L83.4865 80.2868C83.3981 80.2148 83.3483 80.1343 83.3368 80.0452C83.328 79.9582 83.3585 79.8718 83.4284 79.786L86.1638 76.4281L86.3087 76.2502C86.3827 76.1593 86.461 76.1097 86.5434 76.1013C86.6258 76.0928 86.7125 76.1256 86.8033 76.1996C86.9043 76.2819 86.9508 76.3639 86.943 76.4457C86.9356 76.532 86.8538 76.6711 86.6976 76.8629L86.3121 77.3361L89.723 80.1147L90.1085 79.6415C90.2606 79.4548 90.3792 79.3478 90.4644 79.3206C90.55 79.2979 90.6445 79.3288 90.748 79.4131C90.8414 79.4891 90.891 79.5673 90.8969 79.6477C90.9033 79.7327 90.8664 79.8244 90.7862 79.9228L90.6536 80.0856L89.2628 81.7929L89.1178 81.9709C89.0438 82.0617 88.9646 82.1126 88.8801 82.1236C88.7956 82.1345 88.7079 82.103 88.617 82.029C88.5136 81.9447 88.4653 81.8571 88.4722 81.7661C88.4796 81.6798 88.5614 81.5407 88.7176 81.3489L89.2357 80.7129L85.8248 77.9343L84.1842 79.9483L85.176 80.7562Z" fill="white"/>
<path d="M80.3509 85.5307C80.5145 85.7119 80.6022 85.8455 80.614 85.9313C80.6257 86.0172 80.5809 86.106 80.4794 86.1976C80.3924 86.2761 80.3065 86.3121 80.2215 86.3055C80.1388 86.3012 80.0549 86.252 79.9698 86.1578L79.829 86.002L78.7524 84.8098C78.676 84.7252 78.6389 84.6381 78.6412 84.5483C78.6457 84.4609 78.689 84.3802 78.7711 84.306L81.9854 81.4032L82.1557 81.2493C82.2427 81.1708 82.3275 81.1336 82.4103 81.1379C82.4931 81.1421 82.5737 81.1877 82.6522 81.2746C82.7395 81.3713 82.7731 81.4594 82.7529 81.539C82.7324 81.6233 82.6304 81.7483 82.4468 81.9141L81.9939 82.3232L84.9425 85.5882L85.3955 85.1791C85.5742 85.0177 85.7078 84.93 85.7961 84.9161C85.8841 84.9067 85.9729 84.9516 86.0623 85.0506C86.143 85.14 86.1802 85.2249 86.1738 85.3052C86.1672 85.3901 86.1168 85.4752 86.0225 85.5602L85.8667 85.701L84.2324 87.1769L84.0621 87.3307C83.9751 87.4093 83.889 87.4475 83.8039 87.4455C83.7187 87.4435 83.6368 87.399 83.5583 87.312C83.4688 87.2129 83.4344 87.119 83.4551 87.0302C83.4755 86.9459 83.5775 86.8209 83.7611 86.6551L84.3699 86.1053L81.4213 82.8403L79.4934 84.5813L80.3509 85.5307Z" fill="white"/>
<path d="M71.0694 90.1866C70.9708 90.2215 70.8743 90.2572 70.78 90.2937C70.6841 90.3345 70.5919 90.3754 70.5033 90.4165C69.7766 90.753 69.3201 91.1617 69.1339 91.6425C68.9447 92.1248 69.0121 92.7159 69.3363 93.416C69.6619 94.119 70.0684 94.5513 70.5558 94.713C71.0446 94.8777 71.6627 94.787 72.41 94.4409C72.5488 94.3766 72.6545 94.3259 72.727 94.2887C72.7965 94.253 72.8602 94.2163 72.9181 94.1787L71.0694 90.1866ZM70.7801 89.5618L71.4802 89.2376L71.6795 89.1453C71.7888 89.0947 71.8839 89.083 71.9646 89.1101C72.0424 89.1387 72.1059 89.2061 72.1552 89.3125C72.2085 89.4277 72.2144 89.5218 72.1729 89.5948C72.1284 89.6692 72.0176 89.7475 71.8404 89.8295L71.7606 89.8665L73.6093 93.8586L73.6802 93.8258C73.8575 93.7437 73.991 93.7106 74.0808 93.7264C74.1677 93.7435 74.2385 93.8112 74.2932 93.9293C74.3438 94.0386 74.3542 94.1307 74.3242 94.2055C74.2927 94.2847 74.2194 94.3509 74.1042 94.4043L73.9137 94.4925L73.2136 94.8167L72.2344 95.2702C71.4989 95.6108 70.8024 95.6445 70.145 95.3714C69.489 95.1013 68.9743 94.563 68.6008 93.7566C68.4189 93.3637 68.3135 92.9695 68.2845 92.5739C68.2527 92.1797 68.2975 91.8002 68.4192 91.4354C68.534 91.1024 68.7263 90.8089 68.9961 90.5548C69.2643 90.3051 69.6479 90.0646 70.1471 89.8334C70.2062 89.8061 70.308 89.7625 70.4525 89.7028C70.5941 89.6444 70.7033 89.5974 70.7801 89.5618Z" fill="white"/>
<path d="M61.9457 95.8804C61.6994 95.0232 61.7349 94.2509 62.0523 93.5636C62.3705 92.8795 62.9003 92.4309 63.6418 92.2178C64.377 92.0066 65.0631 92.1075 65.7 92.5206C66.3338 92.9346 66.7734 93.5686 67.0188 94.4227C67.2669 95.2862 67.233 96.0581 66.9169 96.7382C66.6018 97.4214 66.072 97.87 65.3274 98.084C64.5859 98.297 63.8983 98.1966 63.2645 97.7826C62.6307 97.3686 62.1911 96.7345 61.9457 95.8804ZM63.8333 92.8842C63.3077 93.0353 62.9522 93.3541 62.767 93.8409C62.5795 94.3317 62.5873 94.9306 62.7905 95.6377C62.9936 96.3448 63.3045 96.8549 63.723 97.1682C64.1393 97.4855 64.6103 97.5686 65.1359 97.4176C65.6646 97.2657 66.0216 96.9463 66.2069 96.4596C66.39 95.9768 66.379 95.3788 66.1741 94.6655C65.9709 93.9584 65.6611 93.4462 65.2448 93.1289C64.8263 92.8157 64.3558 92.7341 63.8333 92.8842Z" fill="white"/>
<path d="M58.7732 94.8041L58.3104 97.807C58.2945 97.914 58.2705 97.9827 58.2383 98.0131C58.2033 98.0471 58.1373 98.0703 58.0404 98.0827L57.8225 98.1106C57.7288 98.1225 57.6608 98.1165 57.6183 98.0924C57.5726 98.0687 57.5297 98.0151 57.4895 97.9316L56.1723 95.1367L56.1899 99.0478L56.9503 98.9506C57.0988 98.9316 57.2119 98.9434 57.2896 98.986C57.364 99.029 57.4084 99.107 57.4228 99.22C57.4385 99.3427 57.4172 99.4324 57.3588 99.4891C57.2972 99.5462 57.176 99.5863 56.9951 99.6094L55.4307 99.8094C55.3597 99.8185 55.2926 99.7943 55.2294 99.7367C55.1667 99.6824 55.1294 99.6084 55.1174 99.5148C55.1034 99.405 55.1235 99.3187 55.1778 99.256C55.2326 99.1965 55.3213 99.1589 55.444 99.1432L55.5021 99.1358L55.5707 94.2044C55.5676 94.1031 55.5785 94.0344 55.6034 93.9984C55.6251 93.9628 55.6666 93.9411 55.728 93.9333L56.0719 93.8893C56.1461 93.8798 56.2045 93.8871 56.2469 93.9112C56.2894 93.9353 56.3303 93.9859 56.3697 94.0629L57.8467 97.2608L58.3494 93.8C58.3617 93.7163 58.384 93.6594 58.4162 93.629C58.4484 93.5986 58.5049 93.5783 58.5856 93.5679L58.9488 93.5215C59.0134 93.5132 59.0637 93.5216 59.0997 93.5465C59.1329 93.5751 59.163 93.6434 59.1899 93.7516L60.5441 98.4912L60.6022 98.4837C60.7281 98.4676 60.8269 98.4829 60.8985 98.5295C60.9669 98.5766 61.0079 98.6534 61.0215 98.7599C61.0339 98.8568 61.0181 98.9392 60.9743 99.0072C60.9305 99.0751 60.8715 99.1138 60.7972 99.1233L59.2279 99.324C59.0504 99.3467 58.9262 99.3379 58.8554 99.2978C58.7814 99.258 58.7366 99.1768 58.7209 99.0541C58.7064 98.941 58.7314 98.8542 58.7958 98.7934C58.857 98.7331 58.9603 98.6936 59.1056 98.6751L59.7885 98.5878L58.7732 94.8041Z" fill="white"/>
<path d="M52.0489 94.8333L51.7999 94.8266L51.4387 94.8168C51.263 94.812 51.1385 94.7826 51.065 94.7285C50.9916 94.6745 50.9565 94.5872 50.9597 94.4668C50.9633 94.3334 51.0016 94.2416 51.0746 94.1915C51.1443 94.1445 51.2979 94.1243 51.5354 94.1307L52.7557 94.1637L52.9851 94.1699C53.1023 94.173 53.1893 94.2047 53.2463 94.2648C53.3033 94.325 53.3302 94.4136 53.327 94.5308C53.3235 94.661 53.2886 94.7479 53.2223 94.7917C53.1526 94.8387 53.0218 94.8596 52.8298 94.8544L52.7371 94.8519L52.6182 99.2497L52.7403 99.253C53.0136 99.2604 53.1984 99.2914 53.2946 99.3461C53.3876 99.4007 53.4323 99.4931 53.4288 99.6233C53.4255 99.7437 53.3825 99.8288 53.2997 99.8787C53.2136 99.9317 53.0779 99.9557 52.8924 99.9507C52.8924 99.9507 52.8598 99.9515 52.7946 99.953C52.7295 99.9545 52.6643 99.9543 52.5993 99.9526L52.1404 99.9402C51.9908 99.9361 51.8871 99.9154 51.8295 99.878C51.7686 99.8438 51.6993 99.7557 51.6217 99.6135L49.2764 95.3006L49.1722 99.1566L49.3626 99.1617L49.7092 99.1711C49.8849 99.1758 50.0127 99.207 50.0925 99.2645C50.169 99.3252 50.2057 99.4157 50.2024 99.5361C50.1988 99.6695 50.1622 99.7597 50.0925 99.8067C50.0228 99.8569 49.8789 99.879 49.6609 99.8732L48.4943 99.8416L48.26 99.8353C48.1429 99.8321 48.0574 99.8005 48.0037 99.7404C47.9467 99.6803 47.9198 99.5916 47.923 99.4745C47.9265 99.3443 47.9647 99.2542 48.0377 99.2041C48.1075 99.1538 48.2351 99.1312 48.4206 99.1363L48.4791 99.1378L48.612 94.2226C48.6145 94.1283 48.6391 94.0638 48.6856 94.0292C48.7288 93.9946 48.8302 93.9794 48.9897 93.9837C49.1491 93.988 49.2481 94.0005 49.2866 94.0211C49.322 94.0383 49.3815 94.1229 49.4654 94.275L51.9411 98.8211L52.0489 94.8333Z" fill="white"/>
<path d="M38.4582 95.5189C38.3179 95.925 38.0521 96.2258 37.6608 96.4213C37.2696 96.6167 36.874 96.6453 36.474 96.5071C36.0678 96.3668 35.7712 96.099 35.584 95.7037C35.3969 95.3084 35.3734 94.9077 35.5138 94.5016C35.6541 94.0955 35.9188 93.7977 36.3079 93.6085C36.6971 93.4192 37.0947 93.3947 37.5008 93.535C37.9008 93.6732 38.1955 93.9368 38.3847 94.326C38.574 94.7151 38.5985 95.1128 38.4582 95.5189Z" fill="white"/>
<path d="M27.6456 87.0144C27.7461 86.9066 27.8364 86.848 27.9165 86.8386C27.9984 86.8266 28.0904 86.8585 28.1922 86.9343C28.3019 87.0159 28.3598 87.1098 28.3661 87.2159C28.3717 87.3174 28.3249 87.4429 28.2258 87.5924L27.6004 88.539L27.5479 88.6095C27.4546 88.7348 27.365 88.8061 27.2792 88.8234C27.1907 88.8387 27.0903 88.8045 26.978 88.721C26.8213 88.6044 26.7926 88.4085 26.8919 88.1334C26.9441 87.9978 26.9773 87.8906 26.9913 87.8117C27.0359 87.5609 26.9973 87.313 26.8753 87.068C26.7507 86.8211 26.5513 86.5956 26.2771 86.3915C25.9403 86.1408 25.6081 86.0173 25.2806 86.0211C24.9506 86.023 24.6932 86.1479 24.5086 86.396C24.355 86.6023 24.2969 86.8167 24.3342 87.0392C24.3688 87.2598 24.4966 87.4807 24.7174 87.7019L25.2388 88.2117C25.723 88.6897 26.0114 89.1255 26.104 89.5191C26.1966 89.9126 26.1019 90.2987 25.8201 90.6774C25.5227 91.0769 25.1085 91.29 24.5773 91.3167C24.0436 91.3414 23.5299 91.1701 23.0364 90.8028C22.8928 90.6959 22.7559 90.5636 22.6257 90.4058C22.4937 90.2507 22.3572 90.0579 22.2164 89.8272C22.1548 89.8991 22.0951 89.9358 22.0371 89.9373C21.9792 89.9388 21.9058 89.9065 21.817 89.8404C21.7021 89.7549 21.6351 89.6787 21.616 89.6117C21.5969 89.5447 21.6297 89.4433 21.7145 89.3076L22.269 88.4481L22.2981 88.409C22.3662 88.3176 22.4457 88.2652 22.5368 88.2518C22.626 88.2411 22.7176 88.2707 22.8116 88.3407C22.95 88.4437 22.9851 88.62 22.917 88.8696C22.8719 89.0065 22.8473 89.116 22.843 89.198C22.832 89.3927 22.8812 89.5856 22.9906 89.7766C23.1001 89.9676 23.2579 90.1398 23.4642 90.2934C23.7802 90.5286 24.0957 90.6417 24.4108 90.6327C24.7232 90.6218 24.9737 90.4897 25.1623 90.2364C25.31 90.0379 25.3535 89.8268 25.2928 89.6031C25.2294 89.3774 25.0619 89.131 24.79 88.8637L24.2216 88.3189C23.812 87.9207 23.5739 87.5264 23.5074 87.136C23.4389 86.7482 23.5426 86.3689 23.8186 85.9981C24.1451 85.5594 24.5707 85.3284 25.0954 85.305C25.6181 85.2842 26.1523 85.4769 26.6981 85.8831C26.8861 86.023 27.0563 86.1842 27.2087 86.3666C27.361 86.549 27.5067 86.7649 27.6456 87.0144Z" fill="white"/>
<path d="M16.6111 84.7286C16.5258 84.7675 16.4498 84.7787 16.3831 84.7623C16.3164 84.746 16.2441 84.6985 16.1661 84.62C16.0812 84.5345 16.0424 84.4538 16.0496 84.3779C16.0567 84.3019 16.125 84.1998 16.2544 84.0713C16.4808 83.8466 16.6899 83.6344 16.8816 83.4349C17.0711 83.2376 17.1531 83.1516 17.1277 83.1768C17.2363 83.069 17.3286 83.0141 17.4045 83.0121C17.4782 83.0123 17.562 83.0598 17.6561 83.1546C17.8074 83.307 17.7975 83.5141 17.6262 83.7759C17.5776 83.8563 17.5405 83.9183 17.515 83.962C17.3853 84.1779 17.3488 84.4229 17.4053 84.697C17.4596 84.9734 17.5979 85.2237 17.8204 85.4477C18.2263 85.8566 18.7021 86.0356 19.2478 85.9846C19.7912 85.936 20.3147 85.6617 20.8183 85.1617C21.3219 84.6617 21.6001 84.1379 21.6527 83.5903C21.7007 83.0426 21.5206 82.5632 21.1124 82.152C20.9794 82.018 20.8256 81.9001 20.651 81.7982C20.4741 81.6985 20.2811 81.6196 20.0718 81.5613C19.9776 81.531 19.8384 81.4994 19.6544 81.4665C19.4681 81.4359 19.352 81.3975 19.3061 81.3513C19.235 81.2797 19.1996 81.1956 19.2 81.0989C19.1957 81.0022 19.2283 80.9195 19.2976 80.8507C19.3669 80.7819 19.4614 80.7431 19.5811 80.7343C19.6962 80.7255 19.8734 80.7492 20.1126 80.8053C20.4323 80.8732 20.7196 80.9755 20.9746 81.1123C21.2296 81.249 21.4649 81.4259 21.6805 81.6431C22.247 82.2137 22.5138 82.8845 22.4811 83.6555C22.4461 84.4287 22.1144 85.1273 21.486 85.7511C20.8646 86.368 20.1614 86.6923 19.3763 86.724C18.5913 86.7557 17.9156 86.4862 17.3491 85.9156C17.1977 85.7631 17.0626 85.59 16.9436 85.3962C16.8223 85.2001 16.7115 84.9776 16.6111 84.7286Z" fill="white"/>
<path d="M13.9347 80.872L15.53 79.7116L14.9354 78.8942C14.6673 78.5257 14.4004 78.2971 14.1348 78.2086C13.8646 78.1194 13.5978 78.1705 13.3346 78.362C13.0687 78.5554 12.9347 78.7917 12.9326 79.071C12.9305 79.3503 13.0606 79.6703 13.3229 80.0309L13.9347 80.872ZM17.528 78.2582L17.3327 77.9897C17.2216 77.837 17.1641 77.7137 17.1603 77.6199C17.1565 77.5261 17.2032 77.4438 17.3006 77.3729C17.4059 77.2963 17.4998 77.2704 17.5821 77.295C17.6644 77.3196 17.7611 77.4083 17.8722 77.561L18.8373 78.8877C18.9024 78.9772 18.9285 79.0629 18.9156 79.1448C18.9 79.2285 18.8462 79.3039 18.754 79.3709C18.6566 79.4418 18.5677 79.4662 18.4873 79.4442C18.4069 79.4222 18.3226 79.3506 18.2346 79.2295L18.1398 79.0992L17.9732 78.8702L14.3799 81.484L14.5465 81.713C14.6901 81.9105 14.7646 82.0516 14.7699 82.1363C14.7751 82.221 14.7264 82.3007 14.6238 82.3754C14.5343 82.4405 14.4509 82.4669 14.3736 82.4547C14.2943 82.4399 14.2212 82.3864 14.1542 82.2943L12.9421 80.628C12.6491 80.2252 12.4506 79.9107 12.3464 79.6846C12.2377 79.4577 12.1797 79.2423 12.1723 79.0384C12.1624 78.7759 12.2185 78.5237 12.3405 78.282C12.4607 78.0376 12.6326 77.8341 12.8564 77.6713C13.1591 77.4511 13.4877 77.355 13.8421 77.383C14.192 77.4102 14.5297 77.559 14.8552 77.8294C14.8449 77.7323 14.847 77.6382 14.8613 77.5473C14.8738 77.4537 14.8986 77.3551 14.936 77.2515L15.5748 75.5731L15.48 75.4428C15.3728 75.2954 15.3201 75.1787 15.322 75.0928C15.3213 75.0088 15.371 74.9304 15.471 74.8577C15.5631 74.7906 15.6514 74.7626 15.7359 74.7736C15.8158 74.7839 15.8884 74.8338 15.9535 74.9233L16.278 75.3695C16.3719 75.4985 16.369 75.6938 16.2695 75.9554C16.2652 75.9827 16.2606 76.0041 16.2559 76.0196L15.6583 77.6136C15.537 77.9393 15.4794 78.1784 15.4857 78.3309C15.49 78.4807 15.5525 78.6385 15.6731 78.8044L16.0551 79.3296L17.528 78.2582Z" fill="white"/>
<path d="M10.2165 70.5341C11.0083 70.1236 11.7724 70.0062 12.5088 70.1818C13.2422 70.359 13.7865 70.79 14.1415 71.4749C14.4936 72.1541 14.5299 72.8466 14.2504 73.5524C13.9695 74.2553 13.4345 74.8113 12.6455 75.2203C11.8479 75.6337 11.0845 75.7526 10.3555 75.5768C9.6235 75.4026 9.07925 74.9716 8.72272 74.2838C8.36768 73.5988 8.33064 72.9049 8.61158 72.2019C8.89252 71.499 9.42748 70.943 10.2165 70.5341ZM13.5259 71.794C13.2743 71.3085 12.8916 71.0229 12.3778 70.9372C11.8597 70.8501 11.2741 70.9758 10.6209 71.3144C9.96778 71.6529 9.5289 72.0583 9.30429 72.5303C9.07529 73.001 9.08662 73.4791 9.33829 73.9647C9.59146 74.4531 9.97492 74.7401 10.4887 74.8258C10.998 74.9101 11.5821 74.7815 12.2411 74.44C12.8942 74.1014 13.3353 73.6968 13.5643 73.2261C13.7889 72.754 13.7761 72.2766 13.5259 71.794Z" fill="white"/>
<path d="M8.97068 64.5266C8.73933 64.6045 8.58192 64.6318 8.49846 64.6084C8.415 64.5851 8.35144 64.5086 8.30777 64.379C8.27033 64.268 8.27156 64.1748 8.31146 64.0995C8.34826 64.0253 8.42682 63.9679 8.54712 63.9273L8.74608 63.8603L10.2684 63.3471C10.3763 63.3107 10.471 63.3114 10.5525 63.3493C10.6309 63.3881 10.6877 63.46 10.7231 63.5649L12.1065 67.669L12.1798 67.8865C12.2173 67.9975 12.2176 68.0902 12.1808 68.1644C12.144 68.2387 12.07 68.2945 11.959 68.3319C11.8356 68.3735 11.7414 68.3692 11.6764 68.319C11.6072 68.2667 11.5331 68.1234 11.4541 67.8889L11.2592 67.3106L7.09022 68.7158L7.28519 69.2942C7.36213 69.5225 7.38943 69.6799 7.36707 69.7664C7.34059 69.8509 7.26412 69.9145 7.13765 69.9571C7.02351 69.9956 6.93087 69.9959 6.85971 69.9581C6.78443 69.9182 6.72652 69.8381 6.68596 69.7178L6.6189 69.5188L5.91547 67.432L5.84216 67.2146C5.80473 67.1035 5.8039 67.0093 5.83966 66.932C5.87543 66.8547 5.94884 66.7973 6.05989 66.7599C6.18636 66.7172 6.28623 66.7231 6.3595 66.7774C6.42865 66.8297 6.50273 66.973 6.58176 67.2074L6.84379 67.9848L11.0127 66.5795L10.183 64.1179L8.97068 64.5266Z" fill="white"/>
<path d="M7.52124 57.9851C7.28076 58.0272 7.12103 58.0303 7.04208 57.9946C6.96312 57.9588 6.91186 57.8736 6.8883 57.7389C6.86811 57.6235 6.88343 57.5316 6.93426 57.4632C6.98188 57.3954 7.06821 57.3506 7.19327 57.3287L7.40009 57.2925L8.98251 57.0157C9.09474 56.9961 9.18824 57.0111 9.26303 57.0608C9.33461 57.1111 9.37994 57.1907 9.39901 57.2997L10.1453 61.566L10.1848 61.7921C10.205 61.9075 10.1913 61.9991 10.1437 62.0669C10.0961 62.1348 10.0145 62.1788 9.8991 62.199C9.77084 62.2214 9.67838 62.2029 9.62171 62.1434C9.56127 62.0813 9.50974 61.9283 9.46711 61.6846L9.36194 61.0834L5.02833 61.8415L5.1335 62.4427C5.175 62.68 5.17816 62.8397 5.14296 62.9219C5.104 63.0014 5.01878 63.0526 4.88731 63.0756C4.76867 63.0964 4.67705 63.0827 4.61244 63.0345C4.54407 62.9837 4.49894 62.8957 4.47707 62.7707L4.44089 62.5639L4.06144 60.3946L4.02189 60.1686C4.0017 60.0532 4.01514 59.9599 4.0622 59.8889C4.10926 59.8179 4.1905 59.7723 4.30594 59.7521C4.43741 59.7291 4.53524 59.75 4.59945 59.8148C4.65989 59.8769 4.71142 60.0298 4.75405 60.2735L4.89539 61.0815L9.22901 60.3235L8.78141 57.7647L7.52124 57.9851Z" fill="white"/>
<path d="M8.53814 47.4147C8.56182 47.3128 8.58367 47.2122 8.60368 47.1131C8.62091 47.0103 8.63609 46.9106 8.64922 46.8138C8.75687 46.0203 8.65822 45.4156 8.35329 44.9997C8.04879 44.5807 7.5143 44.3193 6.74982 44.2155C5.98211 44.1114 5.39891 44.2212 5.00021 44.5449C4.59829 44.8681 4.34198 45.4378 4.23126 46.2539C4.2107 46.4055 4.19656 46.5218 4.18884 46.6029C4.18156 46.6808 4.17817 46.7542 4.17866 46.8233L8.53814 47.4147ZM9.22036 47.5072L9.11665 48.2717L9.08712 48.4894C9.07092 48.6088 9.02964 48.6952 8.96326 48.7486C8.89733 48.7988 8.8063 48.816 8.69017 48.8002C8.56437 48.7832 8.48187 48.7375 8.44268 48.6632C8.40392 48.5856 8.39767 48.4501 8.42392 48.2566L8.43574 48.1695L4.07626 47.5781L4.06576 47.6555C4.0395 47.849 3.99553 47.9794 3.93386 48.0466C3.87262 48.1105 3.77749 48.1338 3.64846 48.1163C3.52911 48.1001 3.44596 48.0592 3.399 47.9937C3.34925 47.9246 3.33291 47.8271 3.34998 47.7013L3.3782 47.4932L3.48191 46.7287L3.62698 45.6594C3.73594 44.8562 4.08247 44.2512 4.66657 43.8442C5.24744 43.4368 5.97817 43.2929 6.85878 43.4124C7.28779 43.4706 7.67675 43.5939 8.02566 43.7825C8.37501 43.9679 8.67066 44.21 8.91262 44.509C9.1314 44.785 9.27523 45.1051 9.34409 45.4692C9.41016 45.8297 9.40623 46.2825 9.33227 46.8276C9.32352 46.8921 9.30541 47.0014 9.27796 47.1553C9.25094 47.3061 9.23174 47.4234 9.22036 47.5072Z" fill="white"/>
<path d="M8.61248 36.6982C9.46783 36.951 10.1001 37.3958 10.5093 38.0327C10.9153 38.6687 11.009 39.3566 10.7904 40.0964C10.5736 40.83 10.1199 41.3544 9.42928 41.6697C8.73962 41.9818 7.96867 42.0119 7.11644 41.7601C6.25485 41.5054 5.62212 41.0621 5.21826 40.4302C4.81127 39.7974 4.71757 39.1095 4.93716 38.3665C5.15582 37.6266 5.60998 37.1007 6.29964 36.7885C6.9893 36.4764 7.76025 36.4463 8.61248 36.6982ZM10.1255 39.8999C10.2805 39.3754 10.2025 38.9043 9.89145 38.4866C9.57824 38.0647 9.06888 37.7496 8.36337 37.541C7.65786 37.3325 7.06057 37.3206 6.5715 37.5053C6.08022 37.686 5.75708 38.0386 5.60208 38.563C5.44616 39.0906 5.5237 39.5633 5.83471 39.981C6.14352 40.3948 6.6538 40.7068 7.36555 40.9172C8.07106 41.1257 8.66945 41.1396 9.16073 40.959C9.6498 40.7742 9.97138 40.4212 10.1255 39.8999Z" fill="white"/>
<path d="M11.2088 34.5779L8.92695 32.5718C8.84526 32.5008 8.80029 32.4436 8.79203 32.4001C8.78221 32.3523 8.79816 32.2842 8.83985 32.1959L8.93366 31.9972C8.97397 31.9118 9.01571 31.8577 9.05888 31.8349C9.10344 31.8092 9.17171 31.8018 9.2637 31.8128L12.3283 32.2069L9.02236 30.1168L8.69505 30.81C8.63112 30.9454 8.56032 31.0344 8.48265 31.0769C8.40636 31.1165 8.31671 31.1119 8.21368 31.0633C8.10182 31.0105 8.03772 30.9442 8.02136 30.8645C8.00639 30.7818 8.03782 30.6581 8.11566 30.4932L8.78903 29.0671C8.81961 29.0023 8.87615 28.9588 8.95865 28.9366C9.0382 28.9129 9.12066 28.9213 9.20603 28.9616C9.30611 29.0088 9.36797 29.0722 9.3916 29.1518C9.41229 29.2299 9.39623 29.325 9.34342 29.4368L9.3184 29.4898L13.4377 32.2015C13.5248 32.2535 13.5768 32.2996 13.5938 32.34C13.6121 32.3774 13.608 32.4241 13.5816 32.4801L13.4336 32.7936C13.4016 32.8613 13.3641 32.9065 13.3209 32.9293C13.2777 32.9521 13.2131 32.9594 13.127 32.9512L9.63682 32.475L12.2832 34.7612C12.347 34.8166 12.3831 34.866 12.3913 34.9095C12.3996 34.953 12.3864 35.0116 12.3516 35.0851L12.1953 35.4163C12.1675 35.4752 12.1334 35.5131 12.093 35.53C12.051 35.5426 11.9772 35.5311 11.8716 35.4957L7.14816 34.0862L7.12315 34.1392C7.06894 34.254 7.00292 34.329 6.92508 34.3643C6.84864 34.3966 6.76184 34.3898 6.6647 34.3439C6.5764 34.3022 6.5154 34.2446 6.48171 34.1711C6.44802 34.0976 6.44715 34.027 6.47912 33.9593L7.15458 32.5287C7.23102 32.3668 7.30522 32.2669 7.37717 32.2288C7.45051 32.1879 7.54311 32.1938 7.65496 32.2466C7.75799 32.2953 7.81776 32.3631 7.83428 32.4501C7.8522 32.5341 7.82988 32.6424 7.76734 32.7748L7.47339 33.3974L11.2088 34.5779Z" fill="white"/>
<path d="M14.6402 29.11L14.7792 28.9034L14.9809 28.6036C15.0791 28.4578 15.1706 28.3684 15.2557 28.3353C15.3407 28.3023 15.4331 28.3194 15.5331 28.3866C15.6438 28.4611 15.7008 28.5426 15.704 28.6311C15.7063 28.7151 15.6412 28.8557 15.5085 29.0528L14.827 30.0656L14.6989 30.256C14.6335 30.3532 14.5601 30.4098 14.4788 30.4257C14.3974 30.4416 14.3082 30.4168 14.2109 30.3514C14.1029 30.2787 14.0482 30.2026 14.0467 30.1231C14.0444 30.0392 14.0968 29.9175 14.204 29.7582L14.2558 29.6812L10.6059 27.2251L10.5377 27.3263C10.385 27.5532 10.2599 27.6926 10.1621 27.7445C10.0662 27.7938 9.96424 27.782 9.85621 27.7094C9.75629 27.6421 9.70743 27.5602 9.70966 27.4636C9.711 27.3625 9.76346 27.235 9.86705 27.081C9.86705 27.081 9.88387 27.0531 9.91752 26.9973C9.95117 26.9414 9.98616 26.8865 10.0225 26.8325L10.2788 26.4517C10.3624 26.3275 10.4354 26.2511 10.4978 26.2224C10.5593 26.1893 10.6709 26.178 10.8324 26.1887L15.7307 26.5186L12.5304 24.365L12.4241 24.523L12.2306 24.8107C12.1324 24.9565 12.0377 25.0477 11.9463 25.0843C11.8541 25.1164 11.758 25.0989 11.6581 25.0316C11.5474 24.9571 11.4908 24.8779 11.4885 24.7939C11.4835 24.7081 11.5418 24.5747 11.6636 24.3938L12.3151 23.4256L12.4459 23.2312C12.5114 23.1339 12.5838 23.0787 12.6633 23.0655C12.7447 23.0496 12.8339 23.0744 12.9312 23.1398C13.0392 23.2125 13.0948 23.2931 13.098 23.3816C13.1031 23.4674 13.0538 23.5873 12.9502 23.7412L12.9175 23.7898L16.9969 26.5349C17.0752 26.5876 17.1165 26.6429 17.1208 26.7007C17.1268 26.7558 17.0854 26.8495 16.9963 26.9818C16.9073 27.1141 16.8437 27.1911 16.8057 27.2126C16.7722 27.2332 16.6688 27.2382 16.4955 27.2275L11.3305 26.8829L14.6402 29.11Z" fill="white"/>
<path d="M21.2395 17.2688C20.9705 16.9337 20.8576 16.5485 20.9006 16.1133C20.9437 15.6781 21.1302 15.328 21.4602 15.0631C21.7953 14.7942 22.18 14.6858 22.6142 14.738C23.0485 14.7902 23.4001 14.9838 23.669 15.3189C23.938 15.6541 24.0489 16.0367 24.0018 16.4669C23.9547 16.897 23.7635 17.2466 23.4284 17.5155C23.0984 17.7804 22.7183 17.8893 22.2881 17.8422C21.858 17.795 21.5084 17.6039 21.2395 17.2688Z" fill="white"/>
<path d="M34.2538 12.5462C34.2916 12.6886 34.2932 12.7962 34.2586 12.869C34.2252 12.9449 34.1493 13.0057 34.0309 13.0517C33.9035 13.1011 33.7932 13.1003 33.7 13.0492C33.611 12.9999 33.5296 12.8936 33.4557 12.7302L32.9867 11.6971L32.9549 11.6152C32.8984 11.4695 32.8856 11.3557 32.9167 11.2738C32.9508 11.1908 33.0331 11.1239 33.1636 11.0733C33.3457 11.0026 33.5268 11.0824 33.707 11.3128C33.7941 11.4291 33.8672 11.5142 33.9265 11.568C34.1152 11.7392 34.3457 11.8383 34.618 11.8653C34.8934 11.8911 35.1904 11.8422 35.5091 11.7185C35.9006 11.5666 36.1818 11.3509 36.3527 11.0716C36.5267 10.7911 36.5577 10.5067 36.4458 10.2184C36.3528 9.97866 36.2021 9.8154 35.9938 9.72863C35.7886 9.64067 35.5336 9.6314 35.2288 9.70081L34.5198 9.87124C33.8574 10.027 33.335 10.0395 32.9525 9.90861C32.57 9.77773 32.2933 9.49227 32.1226 9.05224C31.9424 8.58794 31.9822 8.12379 32.2421 7.65978C32.505 7.19459 32.9232 6.8507 33.4968 6.6281C33.6637 6.56332 33.8485 6.51777 34.0513 6.49144C34.2529 6.46208 34.4888 6.44909 34.759 6.45248C34.7309 6.36212 34.7316 6.292 34.7611 6.24213C34.7907 6.19226 34.857 6.1473 34.9602 6.10726C35.0937 6.05544 35.1939 6.03924 35.2608 6.05867C35.3277 6.0781 35.3961 6.1598 35.466 6.30379L35.8989 7.23042L35.9166 7.27594C35.9578 7.38216 35.9599 7.47739 35.9227 7.56164C35.8844 7.64285 35.8106 7.70466 35.7014 7.74706C35.5405 7.80948 35.3725 7.74549 35.1974 7.55508C35.1054 7.44411 35.0258 7.36501 34.9586 7.31777C34.7996 7.20491 34.6101 7.14402 34.3902 7.1351C34.1702 7.12619 33.9404 7.16826 33.7006 7.2613C33.3334 7.40382 33.0698 7.61087 32.9099 7.88246C32.7529 8.15287 32.7316 8.43526 32.8459 8.72962C32.9354 8.96026 33.091 9.10936 33.3128 9.17693C33.5376 9.24332 33.8354 9.23248 34.2063 9.14441L34.9699 8.95278C35.525 8.81764 35.9856 8.82571 36.3516 8.97697C36.7164 9.12521 36.9824 9.41478 37.1497 9.8457C37.3475 10.3555 37.3169 10.8388 37.0577 11.2956C36.7973 11.7493 36.35 12.0992 35.7157 12.3454C35.4972 12.4302 35.2702 12.4886 35.0348 12.5207C34.7993 12.5527 34.5389 12.5612 34.2538 12.5462Z" fill="white"/>
<path d="M42.2455 4.37504C42.2586 4.28222 42.2899 4.21207 42.3395 4.16457C42.3891 4.11708 42.4679 4.08152 42.5761 4.05788C42.6937 4.03216 42.7827 4.04271 42.8429 4.08953C42.9031 4.13634 42.9527 4.24879 42.9916 4.42688C43.0597 4.73853 43.1265 5.02882 43.1919 5.29774C43.2567 5.56348 43.2852 5.67886 43.2776 5.64388C43.3103 5.79334 43.3071 5.90067 43.268 5.96585C43.2282 6.02786 43.1432 6.07311 43.0128 6.10161C42.8029 6.14749 42.6335 6.02791 42.5045 5.74288C42.4628 5.6587 42.4304 5.59415 42.4072 5.54923C42.2947 5.32393 42.1076 5.16157 41.8459 5.06215C41.5836 4.95955 41.2982 4.94197 40.9897 5.0094C40.4268 5.13243 40.0204 5.43784 39.7705 5.92564C39.5199 6.41025 39.4704 6.99919 39.6219 7.69246C39.7735 8.38573 40.0661 8.90153 40.5 9.23988C40.9363 9.57435 41.4374 9.67971 42.0035 9.55598C42.188 9.51567 42.37 9.44921 42.5497 9.35663C42.7287 9.26086 42.8989 9.14034 43.0605 8.99508C43.1366 8.93179 43.2379 8.83134 43.3644 8.69372C43.4903 8.55293 43.585 8.47558 43.6486 8.46168C43.7472 8.44013 43.8372 8.45545 43.9185 8.50763C44.0024 8.55594 44.0548 8.6278 44.0756 8.7232C44.0965 8.81861 44.0785 8.91917 44.0216 9.0249C43.9672 9.12675 43.8522 9.26352 43.6765 9.43521C43.4476 9.66851 43.207 9.85604 42.9548 9.99781C42.7025 10.1396 42.4269 10.2431 42.128 10.3085C41.3425 10.4802 40.6333 10.3453 40.0003 9.90387C39.3667 9.45926 38.9553 8.80446 38.7663 7.93947C38.5793 7.08401 38.6831 6.3166 39.0777 5.63724C39.4724 4.95787 40.0624 4.53234 40.8479 4.36065C41.0578 4.31477 41.2764 4.29364 41.5038 4.29725C41.7344 4.30017 41.9816 4.3261 42.2455 4.37504Z" fill="white"/>
<path d="M46.6789 4.19978L46.8081 6.16819L47.8167 6.10195C48.2715 6.07208 48.6072 5.96848 48.8239 5.79113C49.0436 5.61032 49.1428 5.35751 49.1215 5.03269C49.1 4.70462 48.9717 4.46512 48.7367 4.31418C48.5017 4.16324 48.1617 4.10239 47.7167 4.13162L46.6789 4.19978ZM46.9701 8.63358L47.3014 8.61182C47.4898 8.59945 47.6247 8.61669 47.706 8.66354C47.7874 8.71039 47.832 8.79391 47.8399 8.91409C47.8485 9.04402 47.8203 9.13721 47.7555 9.19366C47.6907 9.25011 47.5641 9.28453 47.3757 9.2969L45.7386 9.40443C45.6282 9.41168 45.5418 9.38799 45.4795 9.33336C45.417 9.27549 45.382 9.18971 45.3745 9.07602C45.3666 8.95584 45.3935 8.86763 45.455 8.81139C45.5166 8.75515 45.6221 8.72212 45.7715 8.71231L45.9323 8.70175L46.2149 8.68319L45.9236 4.24938L45.6411 4.26794C45.3974 4.28394 45.2384 4.27155 45.164 4.23077C45.0895 4.18999 45.0481 4.10626 45.0398 3.97958C45.0326 3.86914 45.0547 3.7845 45.1063 3.72565C45.1612 3.66659 45.2454 3.63333 45.3591 3.62586L47.4152 3.49081C47.9122 3.45817 48.2841 3.45821 48.5309 3.49093C48.7808 3.5202 48.9939 3.58612 49.1702 3.68872C49.3975 3.82059 49.5807 4.00266 49.7199 4.23492C49.8624 4.46697 49.9427 4.72104 49.9608 4.99714C49.9854 5.37068 49.8912 5.69983 49.6783 5.98458C49.4684 6.26586 49.1622 6.47192 48.7598 6.60274C48.8474 6.64592 48.9259 6.69786 48.9951 6.75855C49.0676 6.81904 49.1377 6.89273 49.2053 6.97962L50.2832 8.41597L50.444 8.40541C50.6259 8.39347 50.7527 8.41124 50.8243 8.45873C50.8957 8.50297 50.9355 8.58681 50.9436 8.71024C50.9511 8.82393 50.9276 8.91355 50.8732 8.97911C50.8218 9.0412 50.7409 9.07588 50.6304 9.08313L50.0799 9.11929C49.9207 9.12974 49.7571 9.02305 49.5891 8.79921C49.5683 8.781 49.5526 8.76572 49.542 8.75336L48.5134 7.39696C48.3028 7.12046 48.1314 6.94414 47.9991 6.86801C47.8702 6.79166 47.7034 6.76021 47.4987 6.77365L46.8507 6.81621L46.9701 8.63358Z" fill="white"/>
<path d="M57.6538 6.57521C57.5748 7.46363 57.2635 8.17126 56.7199 8.69809C56.1766 9.22168 55.5207 9.44931 54.7523 9.38097C53.9903 9.3132 53.3866 8.97193 52.9413 8.35715C52.4992 7.74265 52.3175 6.99282 52.3962 6.10764C52.4758 5.21273 52.7855 4.50496 53.3253 3.98432C53.8654 3.46044 54.5212 3.23282 55.2929 3.30145C56.0614 3.36979 56.6667 3.71121 57.1088 4.3257C57.5508 4.9402 57.7325 5.69003 57.6538 6.57521ZM54.8137 8.69034C55.3584 8.73878 55.8049 8.56933 56.153 8.18198C56.5048 7.79168 56.7132 7.23014 56.7784 6.49735C56.8435 5.76457 56.7373 5.17668 56.4597 4.73368C56.1856 4.28772 55.7762 4.04053 55.2315 3.99208C54.6835 3.94335 54.2355 4.11266 53.8873 4.5C53.5426 4.88439 53.3374 5.44623 53.2717 6.18549C53.2065 6.91828 53.311 7.50765 53.585 7.9536C53.8627 8.3966 54.2722 8.64218 54.8137 8.69034Z" fill="white"/>
<path d="M63.4679 8.74172C63.5264 8.50468 63.5879 8.35725 63.6525 8.29941C63.717 8.24158 63.8157 8.22903 63.9484 8.26177C64.0622 8.28984 64.1401 8.34091 64.1822 8.415C64.2251 8.48592 64.2313 8.58301 64.2009 8.70627L64.1506 8.91012L63.7658 10.4698C63.7386 10.5804 63.6871 10.6599 63.6115 10.7083C63.5366 10.7536 63.4454 10.7629 63.338 10.7364L59.133 9.69914L58.9102 9.64417C58.7964 9.61611 58.7181 9.56661 58.6752 9.49569C58.6324 9.42477 58.625 9.33242 58.653 9.21864C58.6842 9.09223 58.7384 9.01508 58.8157 8.9872C58.897 8.95695 59.0577 8.97145 59.2979 9.0307L59.8904 9.17688L60.9441 4.9055L60.3515 4.75932C60.1176 4.70163 59.9702 4.64012 59.9092 4.57478C59.8522 4.50706 59.8396 4.40841 59.8716 4.27883C59.9004 4.16189 59.9499 4.08358 60.0201 4.04388C60.0941 4.00181 60.1928 3.99597 60.3161 4.02637L60.5199 4.07666L62.658 4.60407L62.8808 4.65904C62.9946 4.6871 63.0745 4.73699 63.1205 4.80869C63.1665 4.88039 63.1755 4.97313 63.1474 5.08691C63.1154 5.21649 63.0569 5.29759 62.9717 5.33023C62.8905 5.36048 62.7298 5.34599 62.4896 5.28674L61.6931 5.09027L60.6395 9.36165L63.1615 9.98378L63.4679 8.74172Z" fill="white"/>
<path d="M69.9276 11.0857C70.0219 10.8605 70.1054 10.7243 70.1781 10.6771C70.2507 10.6299 70.3502 10.6327 70.4763 10.6854C70.5844 10.7307 70.6535 10.7932 70.6837 10.8728C70.7151 10.9495 70.7063 11.0464 70.6573 11.1635L70.5762 11.3572L69.956 12.8391C69.912 12.9441 69.8489 13.0148 69.7667 13.051C69.6858 13.0841 69.5942 13.0794 69.4921 13.0366L65.497 11.3644L65.2853 11.2758C65.1772 11.2305 65.1074 11.1695 65.076 11.0929C65.0445 11.0162 65.0514 10.9238 65.0967 10.8157C65.147 10.6956 65.2124 10.6277 65.2931 10.6121C65.378 10.5947 65.5346 10.6338 65.7628 10.7293L66.3258 10.9649L68.0245 6.90668L67.4614 6.67102C67.2392 6.57801 67.103 6.49453 67.0528 6.42058C67.0069 6.34489 67.0096 6.24548 67.0612 6.12237C67.1077 6.01127 67.1686 5.9415 67.2441 5.91308C67.3237 5.88291 67.4221 5.89233 67.5392 5.94135L67.7329 6.02242L69.7643 6.87269L69.976 6.9613C70.0841 7.00654 70.1554 7.06813 70.1898 7.14606C70.2242 7.22399 70.2188 7.31701 70.1736 7.42511C70.122 7.54822 70.0517 7.61935 69.9625 7.63849C69.8776 7.65588 69.721 7.61681 69.4928 7.52129L68.7361 7.20456L67.0375 11.2628L69.4337 12.2658L69.9276 11.0857Z" fill="white"/>
<path d="M77.9369 17.3701C78.0104 17.4445 78.0838 17.5167 78.1569 17.5865C78.2346 17.656 78.3108 17.7221 78.3856 17.7849C78.9991 18.2996 79.563 18.5391 80.0774 18.5034C80.5944 18.4697 81.1008 18.1574 81.5967 17.5664C82.0947 16.9729 82.3133 16.4212 82.2525 15.9113C82.1939 15.3988 81.8491 14.8779 81.2182 14.3485C81.101 14.2502 81.0102 14.1761 80.9458 14.1263C80.8838 14.0786 80.8235 14.0365 80.7649 14L77.9369 17.3701ZM77.4944 17.8975L76.9034 17.4016L76.7351 17.2603C76.6428 17.1829 76.5918 17.1019 76.5821 17.0172C76.5749 16.9347 76.6089 16.8485 76.6843 16.7588C76.7659 16.6615 76.8486 16.6162 76.9323 16.6227C77.0185 16.6313 77.1365 16.6984 77.2861 16.824L77.3534 16.8805L80.1814 13.5104L80.1215 13.4602C79.9719 13.3346 79.8852 13.2278 79.8613 13.1398C79.8399 13.0539 79.8711 12.961 79.9548 12.8613C80.0322 12.769 80.1111 12.7205 80.1916 12.7158C80.2766 12.7107 80.3678 12.7489 80.465 12.8305L80.6259 12.9655L81.2169 13.4614L82.0435 14.155C82.6644 14.6761 82.9909 15.2922 83.0231 16.0033C83.0573 16.712 82.7888 17.4067 82.2176 18.0874C81.9393 18.4191 81.6273 18.682 81.2815 18.8763C80.9382 19.0727 80.5756 19.1934 80.1937 19.2383C79.8435 19.2759 79.496 19.2266 79.1514 19.0904C78.8114 18.9538 78.4306 18.7086 78.0092 18.355C77.9593 18.3132 77.8766 18.2395 77.7611 18.1341C77.6481 18.0308 77.5592 17.9519 77.4944 17.8975Z" fill="white"/>
<path d="M87.0781 23.2609C86.4076 23.849 85.6938 24.1459 84.9368 24.1517C84.1823 24.1553 83.5507 23.8671 83.042 23.2871C82.5376 22.712 82.3365 22.0483 82.4389 21.2961C82.5433 20.5464 82.9296 19.8785 83.5978 19.2925C84.2732 18.7001 84.9859 18.402 85.7359 18.3981C86.4882 18.392 87.1199 18.6802 87.6307 19.2626C88.1394 19.8427 88.3415 20.5075 88.237 21.2573C88.1325 22.0071 87.7462 22.6749 87.0781 23.2609ZM83.5632 22.8299C83.9238 23.2411 84.3638 23.4268 84.8831 23.387C85.407 23.3475 85.9455 23.0852 86.4986 22.6001C87.0517 22.115 87.3808 21.6164 87.4858 21.1043C87.5955 20.5925 87.47 20.131 87.1094 19.7198C86.7467 19.3062 86.3057 19.1193 85.7863 19.1591C85.2716 19.1992 84.7353 19.4639 84.1773 19.9533C83.6242 20.4384 83.2928 20.9369 83.1832 21.4487C83.0781 21.9608 83.2048 22.4212 83.5632 22.8299Z" fill="white"/>
<path d="M87.5507 26.675L90.4651 25.8161C90.5687 25.7849 90.6411 25.7774 90.6823 25.7936C90.728 25.8109 90.7771 25.8607 90.8295 25.9431L90.9474 26.1285C90.9981 26.2081 91.0216 26.2723 91.0178 26.321C91.0158 26.3724 90.9856 26.434 90.9272 26.5059L88.9583 28.8872L92.4903 27.2071L92.0788 26.5603C91.9984 26.434 91.9609 26.3266 91.9664 26.2383C91.9737 26.1526 92.0254 26.0792 92.1215 26.0181C92.2258 25.9517 92.3161 25.9328 92.3922 25.9615C92.4701 25.993 92.558 26.0856 92.6559 26.2394L93.5025 27.5701C93.541 27.6305 93.5476 27.7015 93.5223 27.7832C93.4999 27.863 93.4488 27.9283 93.3692 27.979C93.2758 28.0384 93.1892 28.0569 93.1093 28.0344C93.0321 28.0102 92.9603 27.9459 92.8939 27.8415L92.8625 27.7921L88.3707 29.8283C88.2803 29.8742 88.2135 29.8936 88.1703 29.8863C88.1289 29.8818 88.0915 29.8535 88.0583 29.8013L87.8722 29.5088C87.832 29.4456 87.8138 29.3897 87.8176 29.341C87.8213 29.2924 87.8497 29.2338 87.9026 29.1654L90.1681 26.4681L86.8223 27.4857C86.7414 27.5102 86.6803 27.5143 86.6392 27.4981C86.598 27.4818 86.5555 27.4394 86.5118 27.3707L86.3152 27.0618C86.2803 27.0068 86.2664 26.9578 86.2737 26.9146C86.2854 26.8724 86.3345 26.8161 86.4209 26.7457L90.1338 23.5036L90.1024 23.4541C90.0342 23.347 90.006 23.2512 90.0178 23.1665C90.0313 23.0846 90.0833 23.0149 90.1739 22.9572C90.2563 22.9048 90.3376 22.8839 90.4177 22.8947C90.4979 22.9054 90.5581 22.9424 90.5982 23.0055L91.4475 24.3403C91.5436 24.4913 91.5885 24.6074 91.5823 24.6886C91.5778 24.7725 91.5234 24.8476 91.419 24.914C91.3229 24.9752 91.2336 24.9895 91.1512 24.9571C91.0706 24.9273 90.991 24.8507 90.9123 24.7271L90.5427 24.1462L87.5507 26.675Z" fill="white"/>
<path d="M90.3535 32.5248L90.4539 32.7527L90.5996 33.0834C90.6705 33.2442 90.6972 33.3694 90.6798 33.4589C90.6623 33.5484 90.5985 33.6175 90.4882 33.666C90.3661 33.7199 90.2668 33.7245 90.1902 33.68C90.118 33.6371 90.0339 33.5069 89.9381 33.2895L89.4459 32.1724L89.3533 31.9624C89.3061 31.8552 89.2974 31.763 89.3274 31.6857C89.3574 31.6085 89.426 31.5462 89.5333 31.499C89.6524 31.4465 89.746 31.4408 89.8139 31.482C89.8862 31.5249 89.961 31.6342 90.0385 31.8099L90.0759 31.8948L94.1017 30.1207L94.0525 30.009C93.9422 29.7588 93.8913 29.5785 93.8995 29.4681C93.9091 29.3608 93.9735 29.2808 94.0927 29.2283C94.2029 29.1797 94.2982 29.1822 94.3787 29.2357C94.4635 29.2908 94.5433 29.4032 94.6181 29.573C94.6181 29.573 94.6327 29.6022 94.6619 29.6604C94.6912 29.7187 94.7189 29.7776 94.7452 29.8372L94.9302 30.2572C94.9906 30.3942 95.0162 30.4968 95.0071 30.5648C95.0023 30.6346 94.9522 30.7349 94.8569 30.8658L91.962 34.8308L95.4919 33.2753L95.4151 33.101L95.2753 32.7838C95.2044 32.6229 95.1779 32.4941 95.1957 32.3973C95.2178 32.3022 95.284 32.2304 95.3942 32.1818C95.5163 32.128 95.6135 32.1225 95.6857 32.1654C95.761 32.2069 95.8426 32.3275 95.9305 32.5271L96.4011 33.595L96.4956 33.8094C96.5429 33.9167 96.5508 34.0074 96.5195 34.0817C96.4896 34.1589 96.4209 34.2212 96.3137 34.2684C96.1945 34.3209 96.0967 34.3249 96.0202 34.2804C95.9449 34.2389 95.8699 34.1332 95.7951 33.9634L95.7715 33.9098L91.272 35.8926C91.1856 35.9306 91.1168 35.936 91.0657 35.9088C91.0159 35.8845 90.9588 35.7994 90.8945 35.6534C90.8301 35.5074 90.799 35.4127 90.8012 35.369C90.8016 35.3297 90.8526 35.2396 90.9542 35.0988L94.004 30.9161L90.3535 32.5248Z" fill="white"/>
<path d="M96.7998 44.3875C97.2268 44.3396 97.6126 44.4503 97.9573 44.7195C98.302 44.9887 98.4979 45.3336 98.5451 45.7541C98.5931 46.1811 98.4788 46.5641 98.2024 46.903C97.926 47.242 97.5743 47.4354 97.1473 47.4833C96.7203 47.5313 96.3377 47.4203 95.9995 47.1503C95.6612 46.8804 95.4682 46.5319 95.4202 46.1049C95.373 45.6844 95.4844 45.305 95.7543 44.9668C96.0243 44.6285 96.3728 44.4355 96.7998 44.3875Z" fill="white"/>
</svg>
